<svg xmlns="http://www.w3.org/2000/svg" xmlns:xlink="http://www.w3.org/1999/xlink" width="60" height="60" viewBox="0 0 60 60">
  <defs>
    <clipPath id="clip-ab-help">
      <rect width="60" height="60"/>
    </clipPath>
  </defs>
  <g id="ab-help" clip-path="url(#clip-ab-help)">
    <g id="Group_1183" data-name="Group 1183" transform="translate(-303 -479)">
      <g id="bell" transform="translate(309 483)">
        <path id="Path_3351" data-name="Path 3351" d="M43.649,35.706h0c-1.507,0-2.358-.783-2.844-2.613a33.677,33.677,0,0,1-.532-7.46,48.28,48.28,0,0,0-.911-10.959.778.778,0,0,0-1.512.371,47.109,47.109,0,0,1,.866,10.6,34.493,34.493,0,0,0,.584,7.851,6.253,6.253,0,0,0,1.023,2.213H7.892a6.253,6.253,0,0,0,1.023-2.213A34.47,34.47,0,0,0,9.5,25.642c.028-4.544.059-9.693,1.918-13.634,2.092-4.436,6.243-6.593,12.689-6.593a16.584,16.584,0,0,1,8.61,1.978,10.445,10.445,0,0,1,4.229,4.944.778.778,0,0,0,1.425-.626,12.114,12.114,0,0,0-4.849-5.65,14.769,14.769,0,0,0-4.793-1.781,4.635,4.635,0,0,0-9.242,0,14.91,14.91,0,0,0-4.6,1.667,12,12,0,0,0-4.874,5.4C8,15.6,7.971,20.928,7.942,25.632a33.652,33.652,0,0,1-.532,7.46c-.487,1.83-1.338,2.612-2.844,2.613h0a4.563,4.563,0,0,0,0,9.126H9.488a.778.778,0,1,0,0-1.556H4.563a3.006,3.006,0,0,1,0-6.013H43.65a3.006,3.006,0,0,1,0,6.013H12.6a.778.778,0,0,0,0,1.556H15.8a8.346,8.346,0,0,0,16.62,0H43.649a4.563,4.563,0,0,0,0-9.126ZM24.106,1.556a3.085,3.085,0,0,1,3.02,2.473,26.695,26.695,0,0,0-6.039,0,3.084,3.084,0,0,1,3.019-2.473Zm0,49.288h0Z" transform="translate(0 0)" fill="#fff"/>
        <path id="Path_3352" data-name="Path 3352" d="M354.141,34.934a10.1,10.1,0,0,1,2.763,2.635,14.965,14.965,0,0,1,2.752,9.136.778.778,0,1,0,1.557,0A16.513,16.513,0,0,0,358.1,36.568a11.373,11.373,0,0,0-3.2-3,.778.778,0,0,0-.755,1.361Zm0,0" transform="translate(-317.539 -30.049)" fill="#fff"/>
        <path id="Path_3353" data-name="Path 3353" d="M411.894,37.949c.125.082,3.067,2.057,3.067,7.024a.778.778,0,0,0,1.556,0c0-5.859-3.63-8.237-3.784-8.335a.778.778,0,0,0-.839,1.311Zm0,0" transform="translate(-369.42 -32.78)" fill="#fff"/>
        <path id="Path_3354" data-name="Path 3354" d="M45.126,47.482A.779.779,0,0,0,45.9,46.7a14.968,14.968,0,0,1,2.752-9.136,10.128,10.128,0,0,1,2.763-2.635.778.778,0,0,0-.755-1.361,11.375,11.375,0,0,0-3.2,3A16.516,16.516,0,0,0,44.348,46.7a.778.778,0,0,0,.778.778Zm0,0" transform="translate(-39.809 -30.048)" fill="#fff"/>
        <path id="Path_3355" data-name="Path 3355" d="M11.669,45.752a.778.778,0,0,0,.778-.778c0-4.964,2.938-6.939,3.067-7.024a.778.778,0,0,0-.839-1.311c-.154.1-3.784,2.475-3.784,8.335a.778.778,0,0,0,.778.778Zm0,0" transform="translate(-9.776 -32.78)" fill="#fff"/>
      </g>
    </g>
  </g>
</svg>
