<svg id="Layer_1" data-name="Layer 1" xmlns="http://www.w3.org/2000/svg" viewBox="0 0 60 60"><defs><style>.cls-1{fill:none;}.cls-2{fill:#fff;}</style></defs><title>ab-helpdesk</title><rect class="cls-1" width="60" height="60"/><g id="support"><g id="Group_1080" data-name="Group 1080"><g id="Group_1079" data-name="Group 1079"><path id="Path_3192" data-name="Path 3192" class="cls-2" d="M35.8,40.32H24.15A17.38,17.38,0,0,0,6.8,57.68H53.2A17.49,17.49,0,0,0,35.8,40.32Z"/><path id="Path_3193" data-name="Path 3193" class="cls-2" d="M32.05,32.38a3.71,3.71,0,0,1,2.43.86h4.2A12,12,0,1,0,24.1,35.47a4,4,0,0,1,3.8-3.09Z"/><path id="Path_3194" data-name="Path 3194" class="cls-2" d="M12.16,26a5.66,5.66,0,0,0,1.62,3.29,6.2,6.2,0,0,0,2.48,1.47,2.09,2.09,0,0,1-.05-.56V20.33a2.43,2.43,0,0,1,.05-.6,5.34,5.34,0,0,0-2.48,1.47l-.2.2V21a18.05,18.05,0,0,1,.25-2.84,12.3,12.3,0,0,1,.76-2.73,11.79,11.79,0,0,1,1.22-2.59,14.78,14.78,0,0,1,1.61-2.32.35.35,0,0,0,.1-.2,1.52,1.52,0,0,0,1.22-.4A15.76,15.76,0,0,1,41,9.92a1.46,1.46,0,0,0,1.21.4c.05,0,.05.15.1.2a14.47,14.47,0,0,1,1.62,2.33,20.21,20.21,0,0,1,1.21,2.58,24.3,24.3,0,0,1,.76,2.78A16.83,16.83,0,0,1,46.17,21v.4c-.05-.1-.16-.15-.2-.2a6.07,6.07,0,0,0-2.48-1.46,2.43,2.43,0,0,1,0,.6v9.77a2.12,2.12,0,0,1,0,.56,4.26,4.26,0,0,0,.76-.26v3.19a6,6,0,0,1-.1,1,1.37,1.37,0,0,1-.26.56,1,1,0,0,1-.4.25,2.07,2.07,0,0,1-.66.1H33.47A1.69,1.69,0,0,0,32,34.65H27.85a1.64,1.64,0,0,0-1.62,1.62,1.68,1.68,0,0,0,1.67,1.62h4.15A1.76,1.76,0,0,0,33.52,37h9.76a3,3,0,0,0,1-.2,2.61,2.61,0,0,0,1-.66,3.25,3.25,0,0,0,.61-1.11,6.59,6.59,0,0,0,.2-1.47v-4.2l.15-.15A5.66,5.66,0,0,0,47.84,26c0-.05.1-.05.1-.1a1,1,0,0,0,.25-.6v-4.2a21.91,21.91,0,0,0-.25-3.14c-.3-1.07-.56-2.08-.91-3.09a15.21,15.21,0,0,0-1.37-2.88,15.09,15.09,0,0,0-1.82-2.59.52.52,0,0,0-.26-.2,1.52,1.52,0,0,0-.4-1.36,18.75,18.75,0,0,0-26.46,0,1.55,1.55,0,0,0-.4,1.37.86.86,0,0,0-.26.2,15,15,0,0,0-1.82,2.58,25.44,25.44,0,0,0-1.37,2.89,16.34,16.34,0,0,0-.81,3.09A15.62,15.62,0,0,0,11.81,21v4.2a.82.82,0,0,0,.25.61S12.16,25.9,12.16,26Z"/></g></g></g></svg>