<svg id="Layer_1" data-name="Layer 1" xmlns="http://www.w3.org/2000/svg" viewBox="0 0 60 60"><defs><style>.cls-1{fill:none;}.cls-2{fill:#fff;}</style></defs><title>ab-listview</title><rect class="cls-1" width="60" height="60"/><path class="cls-2" d="M54.86,36H26.43a.12.12,0,0,0-.11.14v3.3a.12.12,0,0,0,.11.14H54.86a.12.12,0,0,0,.11-.14v-3.3A.13.13,0,0,0,54.86,36Z"/><path class="cls-2" d="M54.86,12.09H26.43a.12.12,0,0,0-.11.14v3.3a.12.12,0,0,0,.11.14H54.86a.12.12,0,0,0,.11-.14v-3.3A.13.13,0,0,0,54.86,12.09Z"/><path class="cls-2" d="M40.53,43.13H26.44a.14.14,0,0,0-.12.14v3.3a.14.14,0,0,0,.12.14H40.53a.12.12,0,0,0,.11-.14v-3.3A.12.12,0,0,0,40.53,43.13Z"/><path class="cls-2" d="M26.44,22.84H40.53a.12.12,0,0,0,.11-.14V19.4a.12.12,0,0,0-.11-.14H26.44a.13.13,0,0,0-.12.14v3.3A.14.14,0,0,0,26.44,22.84Z"/><rect class="cls-2" x="5.03" y="33.58" width="16.71" height="16.71" rx="1"/><rect class="cls-2" x="5.03" y="9.71" width="16.71" height="16.71" rx="1"/></svg>