<svg id="Layer_1" data-name="Layer 1" xmlns="http://www.w3.org/2000/svg" viewBox="0 0 60 60"><defs><style>.cls-1{fill:none;}.cls-2{fill:#303e48;}.cls-3{fill:#e6e6e6;}.cls-4{fill:#d1d1d1;}.cls-11,.cls-5{fill:#ffb04c;}.cls-6{fill:#fa6657;}.cls-7{fill:#f44a46;}.cls-8{fill:#162630;}.cls-9{fill:#ffdb6c;}.cls-10{fill:#e89b46;}.cls-11{stroke:#fff;stroke-miterlimit:10;}.cls-12{opacity:0.2;isolation:isolate;}</style></defs><title>ab-triptracking</title><rect class="cls-1" width="60" height="60"/><g id="Group_1136" data-name="Group 1136"><circle id="Ellipse_3" data-name="Ellipse 3" class="cls-2" cx="48.9" cy="50.83" r="4.39"/><circle id="Ellipse_4" data-name="Ellipse 4" class="cls-3" cx="48.9" cy="50.83" r="2.69"/><circle id="Ellipse_5" data-name="Ellipse 5" class="cls-4" cx="48.9" cy="50.83" r="0.92"/><path id="Path_110" data-name="Path 110" class="cls-5" d="M47.88,41.89A8.14,8.14,0,0,1,56.23,48a1.23,1.23,0,0,1-1,1.44l-.21,0H44.91"/><circle id="Ellipse_6" data-name="Ellipse 6" class="cls-2" cx="8.49" cy="50.83" r="4.39"/><circle id="Ellipse_7" data-name="Ellipse 7" class="cls-3" cx="8.49" cy="50.83" r="2.69"/><circle id="Ellipse_8" data-name="Ellipse 8" class="cls-4" cx="8.49" cy="50.83" r="0.92"/><rect id="Rectangle_57" data-name="Rectangle 57" class="cls-6" x="28.18" y="37.34" width="6.9" height="9.78"/><rect id="Rectangle_58" data-name="Rectangle 58" class="cls-7" x="28.18" y="37.34" width="6.9" height="2.35"/><path id="Path_111" data-name="Path 111" class="cls-2" d="M34.14,37.88h-6.9V34.05h6.9A1.88,1.88,0,0,1,36,35.93h0a1.89,1.89,0,0,1-1.83,1.94Z"/><rect id="Rectangle_59" data-name="Rectangle 59" class="cls-3" x="26.29" y="18.27" width="1.88" height="27.72"/><path id="Path_112" data-name="Path 112" class="cls-5" d="M50.78,42h1.54a1.22,1.22,0,0,0,1.21-1.22h0V38.46a1.21,1.21,0,0,0-1.21-1.21H50.78a2.4,2.4,0,0,0-2.4,2.39h0A2.42,2.42,0,0,0,50.78,42Z"/><path id="Path_113" data-name="Path 113" class="cls-6" d="M58.1,40.42H56.56a.95.95,0,0,1-.21-1.88H58.1a.95.95,0,0,1,0,1.88Z"/><path id="Path_114" data-name="Path 114" class="cls-6" d="M56.43,37.51a.94.94,0,0,1-.36-1.81l1.38-.57a1,1,0,0,1,1.23.53.94.94,0,0,1-.53,1.23h0l-1.37.55A1,1,0,0,1,56.43,37.51Z"/><path id="Path_115" data-name="Path 115" class="cls-6" d="M57.79,43.77a1.15,1.15,0,0,1-.36-.07l-1.37-.59a.94.94,0,0,1-.41-1.27,1,1,0,0,1,1.15-.46l1.36.59a.93.93,0,0,1,.53,1.21,1,1,0,0,1-.9.59Z"/><path id="Path_116" data-name="Path 116" class="cls-2" d="M45.73,18.27a3.77,3.77,0,0,0,3.62-2.88.7.7,0,0,0-.54-.83H11A8.48,8.48,0,0,0,2.53,23V33.6a4.42,4.42,0,0,0,7.63,3l3.15-3.37V22a3.79,3.79,0,0,1,3.79-3.79H39.41V30.43l4.7,1,4.5-1a31.28,31.28,0,0,0-4-12.16Z"/><path id="Path_117" data-name="Path 117" class="cls-8" d="M44.61,18.27h-5.2v3.37h6.87A25.14,25.14,0,0,0,44.61,18.27Z"/><path id="Path_118" data-name="Path 118" class="cls-3" d="M46.52,27.55a22.59,22.59,0,0,0-2.4-6.75.72.72,0,0,0-.6-.37H41.76a.68.68,0,0,0-.68.69h0v6.55a.68.68,0,0,0,.68.68h4.07a.7.7,0,0,0,.7-.7S46.52,27.58,46.52,27.55Z"/><path id="Path_119" data-name="Path 119" class="cls-9" d="M39.41,30.43V46H19.88V38.3a5,5,0,0,0-5.12-4.92H2.53v16H44.88A30.62,30.62,0,0,0,48.83,34.1a29.82,29.82,0,0,0-.2-3.66Z"/><path id="Path_120" data-name="Path 120" class="cls-10" d="M49.1,41.84h-.26q-.48,0-1,0l-3,7.49h1.48A30.32,30.32,0,0,0,49.1,41.84Z"/><path id="Path_121" data-name="Path 121" class="cls-5" d="M48.82,33.38a23.25,23.25,0,0,0-.19-2.89H39.41v2.89Z"/><path id="Path_122" data-name="Path 122" class="cls-5" d="M19.37,36.21a5.09,5.09,0,0,0-4.61-2.83H2.53v2.89Z"/><path id="Path_123" data-name="Path 123" class="cls-6" d="M43.67,34.58H42.55a.94.94,0,1,1-.2-1.87h1.32a.94.94,0,1,1,.21,1.87A.74.74,0,0,1,43.67,34.58Z"/><path id="Path_124" data-name="Path 124" class="cls-5" d="M1.89,49.38a.84.84,0,0,1-.83-.84.34.34,0,0,1,0-.1,7.53,7.53,0,0,1,15,.94Z"/><path id="Path_125" data-name="Path 125" class="cls-11" d="M34,5.12h0a9.51,9.51,0,0,0-13.46,0l0,0h0a10.94,10.94,0,0,0-.89,13.49l7.63,11,7.61-11A10.91,10.91,0,0,0,34,5.12Zm-6.64,9.79A3.14,3.14,0,1,1,29.56,14,3.14,3.14,0,0,1,27.33,14.91Z"/><ellipse id="Ellipse_9" data-name="Ellipse 9" class="cls-12" cx="28.95" cy="56.9" rx="23.74" ry="0.79"/></g></svg>