<svg id="Layer_1" data-name="Layer 1" xmlns="http://www.w3.org/2000/svg" viewBox="0 0 60 60"><defs><style>.cls-1{fill:none;}.cls-2{opacity:0.2;isolation:isolate;}.cls-3{fill:#ffb04c;}.cls-4{fill:#f64938;}.cls-5{fill:#ffdb6c;}</style></defs><title>ab-vehicleauth</title><rect class="cls-1" width="60" height="60"/><ellipse id="Ellipse_19" data-name="Ellipse 19" class="cls-2" cx="30" cy="56.7" rx="23.91" ry="0.79"/><g id="Group_1137" data-name="Group 1137"><path id="Subtraction_7" data-name="Subtraction 7" class="cls-3" d="M17.41,42.1H9.09V38.61A14.81,14.81,0,0,1,23.66,24.5h0a1.61,1.61,0,0,1,1.34.75L28.76,31a1.49,1.49,0,0,0,2.1.3,1.07,1.07,0,0,0,.3-.3l3.75-5.7a1.63,1.63,0,0,1,1.35-.75h0A14.8,14.8,0,0,1,50.83,38.61V42.1H42.51a14.12,14.12,0,0,0-25.1,0Z"/><path id="Path_3" data-name="Path 3" class="cls-3" d="M30,2.51a9.66,9.66,0,1,0,9.65,9.65h0A9.65,9.65,0,0,0,30,2.51Zm0,16.2a6.55,6.55,0,1,1,6.55-6.55h0A6.55,6.55,0,0,1,30,18.71Z"/><path id="Path_1" data-name="Path 1" class="cls-4" d="M30,39.31A11.33,11.33,0,0,0,18.63,50.64H41.3A11.33,11.33,0,0,0,30,39.31Z"/><path id="Path_2" data-name="Path 2" class="cls-5" d="M36.27,26.62a1.57,1.57,0,0,0-1.35.75l-3.75,5.7a1.49,1.49,0,0,1-2.1.3,1.22,1.22,0,0,1-.3-.3L25,27.37a1.57,1.57,0,0,0-1.35-.75A14.8,14.8,0,0,0,9.1,40.73V54.24a.37.37,0,0,0,.37.38H17a2.18,2.18,0,0,0,0-4.36H15.86a14.11,14.11,0,0,1,28.21,0H43a2.18,2.18,0,0,0,0,4.36h7.5a.38.38,0,0,0,.38-.37h0V40.73A14.8,14.8,0,0,0,36.27,26.62Z"/></g></svg>