<?xml version="1.0" encoding="utf-8"?>
<!-- Generator: Adobe Illustrator 23.0.3, SVG Export Plug-In . SVG Version: 6.00 Build 0)  -->
<svg version="1.1" id="Layer_1" xmlns="http://www.w3.org/2000/svg" xmlns:xlink="http://www.w3.org/1999/xlink" x="0px" y="0px"
	 viewBox="0 0 26.7 26.7" style="enable-background:new 0 0 26.7 26.7;" xml:space="preserve">
<style type="text/css">
	.st0{fill:#FE6352;}
</style>
<g id="Group_126">
	<path id="Path_312" class="st0" d="M13.5,0.9C6.5,0.9,0.9,6.5,0.9,13.5S6.5,26,13.5,26S26,20.4,26,13.5S20.4,0.9,13.5,0.9
		C13.5,0.9,13.5,0.9,13.5,0.9z M14,24.9v-2.2c0-0.3-0.2-0.5-0.5-0.5c-0.3,0-0.5,0.2-0.5,0.5c0,0,0,0,0,0v2.2C7,24.7,2.3,19.9,2,14
		h2.2c0.3,0,0.5-0.2,0.5-0.5c0-0.3-0.2-0.5-0.5-0.5c0,0,0,0,0,0H2C2.3,7,7,2.3,12.9,2v2.2c0,0.3,0.2,0.5,0.5,0.5
		c0.3,0,0.5-0.2,0.5-0.5c0,0,0,0,0,0V2c5.9,0.3,10.6,5,10.9,10.9h-2.2c-0.3,0-0.5,0.2-0.5,0.5c0,0.3,0.2,0.5,0.5,0.5c0,0,0,0,0,0
		h2.2C24.7,19.9,19.9,24.7,14,24.9z"/>
</g>
<g id="Group_129" transform="translate(5.245 2.776)">
	<g id="Group_128">
		<path id="Path_313" class="st0" d="M13.9,15.7l-5.1-5.2V5c0-0.3-0.2-0.5-0.5-0.5C7.9,4.5,7.7,4.7,7.7,5l0,0v5.7
			c0,0.1,0.1,0.3,0.2,0.4l5.3,5.4c0.2,0.2,0.5,0.2,0.8,0C14.1,16.3,14.1,15.9,13.9,15.7z"/>
	</g>
</g>
</svg>
