<svg xmlns="http://www.w3.org/2000/svg" xmlns:xlink="http://www.w3.org/1999/xlink" width="250" height="70" viewBox="0 0 250 70">
  <defs>
    <clipPath id="clip-custom_1">
      <rect width="250" height="70"/>
    </clipPath>
  </defs>
  <g id="custom_1" data-name="custom – 1" clip-path="url(#clip-custom_1)">
    <g id="Group_1" data-name="Group 1" transform="translate(-15.599 -27.68)">
      <path id="Path_6" data-name="Path 6" d="M21.568-25.74H27.81V-.861H21.568v-2.63A12.238,12.238,0,0,1,17.9-.987a10.259,10.259,0,0,1-3.986.766A11.072,11.072,0,0,1,5.58-3.959a13.042,13.042,0,0,1-3.517-9.3,13.365,13.365,0,0,1,3.4-9.444,10.843,10.843,0,0,1,8.268-3.682,10.508,10.508,0,0,1,4.2.846A11.468,11.468,0,0,1,21.568-23Zm-6.562,5.122A6.307,6.307,0,0,0,10.2-18.571a7.375,7.375,0,0,0-1.914,5.248,7.453,7.453,0,0,0,1.948,5.305,6.313,6.313,0,0,0,4.8,2.081,6.431,6.431,0,0,0,4.877-2.047,7.481,7.481,0,0,0,1.937-5.362,7.266,7.266,0,0,0-1.937-5.259A6.512,6.512,0,0,0,15.005-20.618ZM41.021-35.344V-23a11.739,11.739,0,0,1,3.659-2.538,10.532,10.532,0,0,1,4.207-.846A10.861,10.861,0,0,1,57.165-22.7a13.356,13.356,0,0,1,3.407,9.444,13.034,13.034,0,0,1-3.521,9.3A11.091,11.091,0,0,1,48.7-.221a10.367,10.367,0,0,1-4-.766,12.2,12.2,0,0,1-3.682-2.5v2.63h-6.2V-35.344Zm6.563,14.726a6.518,6.518,0,0,0-4.893,2.012,7.252,7.252,0,0,0-1.944,5.259A7.466,7.466,0,0,0,42.69-7.984a6.463,6.463,0,0,0,4.893,2.047A6.345,6.345,0,0,0,52.4-8.018a7.438,7.438,0,0,0,1.955-5.305,7.361,7.361,0,0,0-1.921-5.248A6.365,6.365,0,0,0,47.583-20.618ZM66.465-35.344h6.2v12.119a14.223,14.223,0,0,1,3.682-2.367,9.492,9.492,0,0,1,3.75-.789,8.446,8.446,0,0,1,6.243,2.561Q88.508-21.6,88.508-17.3V-.861H82.357V-11.768a26.922,26.922,0,0,0-.412-5.854,4.082,4.082,0,0,0-1.406-2.287,3.949,3.949,0,0,0-2.458-.755,4.633,4.633,0,0,0-3.258,1.258,6.667,6.667,0,0,0-1.886,3.43,28.4,28.4,0,0,0-.274,5.122V-.861h-6.2Zm47.145,9.6h6.243V-.861h-6.243v-2.63a12.238,12.238,0,0,1-3.666,2.5,10.259,10.259,0,0,1-3.986.766,11.072,11.072,0,0,1-8.336-3.739,13.042,13.042,0,0,1-3.517-9.3,13.365,13.365,0,0,1,3.4-9.444,10.843,10.843,0,0,1,8.268-3.682,10.508,10.508,0,0,1,4.2.846A11.468,11.468,0,0,1,113.609-23Zm-6.562,5.122a6.307,6.307,0,0,0-4.809,2.047,7.375,7.375,0,0,0-1.914,5.248,7.453,7.453,0,0,0,1.948,5.305,6.313,6.313,0,0,0,4.8,2.081,6.431,6.431,0,0,0,4.877-2.047,7.481,7.481,0,0,0,1.937-5.362,7.266,7.266,0,0,0-1.937-5.259A6.512,6.512,0,0,0,107.047-20.618Zm17.058-5.122h6.379l6.462,15.61,7.131-15.61h6.4L134.894,8.24h-6.447l5.116-10.957Zm48.99,0h6.243V-.861H173.1v-2.63a12.238,12.238,0,0,1-3.666,2.5,10.259,10.259,0,0,1-3.986.766,11.072,11.072,0,0,1-8.336-3.739,13.042,13.042,0,0,1-3.517-9.3,13.365,13.365,0,0,1,3.4-9.444,10.843,10.843,0,0,1,8.268-3.682,10.508,10.508,0,0,1,4.2.846A11.468,11.468,0,0,1,173.1-23Zm-6.562,5.122a6.307,6.307,0,0,0-4.809,2.047,7.376,7.376,0,0,0-1.914,5.248,7.453,7.453,0,0,0,1.948,5.305,6.313,6.313,0,0,0,4.8,2.081,6.431,6.431,0,0,0,4.877-2.047,7.481,7.481,0,0,0,1.937-5.362,7.266,7.266,0,0,0-1.937-5.259A6.512,6.512,0,0,0,166.533-20.618Z" transform="translate(80.095 69.024)" fill="#333" opacity="0.8"/>
      <path id="Path_1" data-name="Path 1" d="M81.335,205.652A11.552,11.552,0,0,0,93.488,208.3a29.431,29.431,0,0,1,10.284-1.652,29.326,29.326,0,0,1,10.428,1.7,11.47,11.47,0,0,0,12.125-2.616h0c-6.14-4.215-12.778-6.69-22.553-6.69-9.714,0-16.33,2.444-22.437,6.61Z" transform="translate(-56.927 -164.362)" fill="#fcb400"/>
      <path id="Path_3" data-name="Path 3" d="M168.872,231.5a11.552,11.552,0,0,0-7.46,9.952,32.8,32.8,0,0,1-8.665,18.813,11.47,11.47,0,0,0-2.665,12.114h0c6.387-3.829,11.4-8.837,15.466-17.726,4.041-8.833,4.572-15.867,3.324-23.153Z" transform="translate(-97.536 -183.734)" fill="#18bfff"/>
      <path id="Path_4" data-name="Path 4" d="M74.962,231.5a11.553,11.553,0,0,1,7.46,9.952,32.8,32.8,0,0,0,8.665,18.813,11.47,11.47,0,0,1,2.665,12.114h0c-6.387-3.829-11.4-8.837-15.466-17.726-4.041-8.833-4.572-15.867-3.324-23.153Z" transform="translate(-52.767 -183.734)" fill="#f82b60"/>
      <g id="Group_3" data-name="Group 3" transform="translate(37.521 50.844)">
        <path id="Path_2" data-name="Path 2" d="M132.227,253.984a2.9,2.9,0,0,0-3.719-.645l-4.569,2.637-.006,0a1.007,1.007,0,0,1-1.023,0l-.006,0-4.569-2.637a2.9,2.9,0,0,0-3.719.645,2.841,2.841,0,0,0,.8,4.229l4.645,2.682c.079.046.16.087.241.124a.713.713,0,0,1,.434.646v5.28a2.9,2.9,0,0,0,2.419,2.9,2.841,2.841,0,0,0,3.261-2.81v-5.364c0-.043,0-.085,0-.127a.71.71,0,0,1,.358-.645l0,0,4.645-2.682A2.841,2.841,0,0,0,132.227,253.984Z" transform="translate(-114 -246.701)" fill="#333"/>
        <ellipse id="Ellipse_1" data-name="Ellipse 1" cx="3.471" cy="3.471" rx="3.471" ry="3.471" transform="translate(5.952)" fill="#333"/>
      </g>
      <rect id="Rectangle_61" data-name="Rectangle 61" width="40" height="14" rx="7" transform="translate(131 78)" fill="#f82b60"/>
      <path id="Path_5" data-name="Path 5" d="M.712-5.722H5.288v.782H1.51v2.5H5.256v.782H1.51V1.482H5.256v.782H.712ZM6.42-3.643h.76v1.059a3.177,3.177,0,0,1,1.01-.909,2.481,2.481,0,0,1,1.205-.3,2.094,2.094,0,0,1,1.175.337,2,2,0,0,1,.757.907,4.794,4.794,0,0,1,.244,1.775v3.04h-.76V-.554a6.942,6.942,0,0,0-.085-1.363,1.5,1.5,0,0,0-.507-.882,1.53,1.53,0,0,0-.977-.3,1.875,1.875,0,0,0-1.235.456,2.136,2.136,0,0,0-.719,1.129A7.853,7.853,0,0,0,7.18.1V2.264H6.42Zm12.543,0V2.264h-.749V1.248a3.258,3.258,0,0,1-1.072.874,2.9,2.9,0,0,1-1.3.293A2.884,2.884,0,0,1,13.7,1.506a3.049,3.049,0,0,1-.888-2.212,2.993,2.993,0,0,1,.9-2.182,2.921,2.921,0,0,1,2.155-.907,2.787,2.787,0,0,1,1.316.309,3,3,0,0,1,1.034.928V-3.643Zm-3.037.581a2.291,2.291,0,0,0-1.171.312,2.286,2.286,0,0,0-.854.876,2.4,2.4,0,0,0-.317,1.193A2.4,2.4,0,0,0,13.9.511a2.33,2.33,0,0,0,.859.887,2.246,2.246,0,0,0,1.158.317A2.373,2.373,0,0,0,17.1,1.4a2.2,2.2,0,0,0,.859-.851,2.43,2.43,0,0,0,.3-1.209,2.351,2.351,0,0,0-.675-1.714A2.236,2.236,0,0,0,15.926-3.062ZM20.6,2.264V-5.923h.76v3.3A3.207,3.207,0,0,1,22.428-3.5a2.9,2.9,0,0,1,1.3-.29,2.88,2.88,0,0,1,2.139.909A3.044,3.044,0,0,1,26.75-.679a3,3,0,0,1-.895,2.188,2.916,2.916,0,0,1-2.153.907A2.754,2.754,0,0,1,22.4,2.106a3.05,3.05,0,0,1-1.036-.928V2.264Zm3.04-.581a2.284,2.284,0,0,0,1.17-.312,2.287,2.287,0,0,0,.853-.877A2.4,2.4,0,0,0,25.98-.7a2.418,2.418,0,0,0-.32-1.2,2.329,2.329,0,0,0-.858-.888,2.23,2.23,0,0,0-1.151-.318,2.365,2.365,0,0,0-1.183.318,2.213,2.213,0,0,0-.861.855,2.437,2.437,0,0,0-.3,1.211A2.356,2.356,0,0,0,21.98.993,2.231,2.231,0,0,0,23.64,1.683ZM27.9-5.923h.76V2.264H27.9Zm2.481-.152a.6.6,0,0,1,.443.185.608.608,0,0,1,.184.445.6.6,0,0,1-.184.44.6.6,0,0,1-.443.185.6.6,0,0,1-.438-.185.6.6,0,0,1-.184-.44.608.608,0,0,1,.184-.445A.6.6,0,0,1,30.379-6.075ZM30-3.643h.76V2.264H30Zm2.217,0h.76v1.059a3.177,3.177,0,0,1,1.01-.909,2.481,2.481,0,0,1,1.205-.3,2.094,2.094,0,0,1,1.175.337,2.005,2.005,0,0,1,.757.907,4.794,4.794,0,0,1,.244,1.775v3.04h-.76V-.554a6.941,6.941,0,0,0-.085-1.363A1.5,1.5,0,0,0,36.02-2.8a1.53,1.53,0,0,0-.977-.3,1.875,1.875,0,0,0-1.235.456,2.136,2.136,0,0,0-.719,1.129A7.853,7.853,0,0,0,32.979.1V2.264h-.76Zm11.75,0h.76V1.064a5.557,5.557,0,0,1-.217,1.819,2.364,2.364,0,0,1-1.037,1.254,3.408,3.408,0,0,1-1.775.44,4.061,4.061,0,0,1-1.365-.215,2.731,2.731,0,0,1-.985-.577,3.434,3.434,0,0,1-.7-1.059h.825a2.18,2.18,0,0,0,.87.869,2.8,2.8,0,0,0,1.321.282,2.73,2.73,0,0,0,1.313-.289,1.775,1.775,0,0,0,.764-.728,3.244,3.244,0,0,0,.228-1.415v-.3a2.879,2.879,0,0,1-1.049.833,3.06,3.06,0,0,1-1.315.29,3.071,3.071,0,0,1-1.532-.4A2.873,2.873,0,0,1,38.965.771a2.976,2.976,0,0,1-.391-1.5,3.013,3.013,0,0,1,.408-1.528,2.993,2.993,0,0,1,1.128-1.121,3.009,3.009,0,0,1,1.519-.413,2.829,2.829,0,0,1,1.236.274,3.41,3.41,0,0,1,1.106.9Zm-2.242.581a2.4,2.4,0,0,0-1.2.312,2.262,2.262,0,0,0-.869.863A2.361,2.361,0,0,0,39.344-.7,2.149,2.149,0,0,0,40,.912a2.316,2.316,0,0,0,1.688.635A2.3,2.3,0,0,0,43.37.917a2.223,2.223,0,0,0,.638-1.656,2.4,2.4,0,0,0-.293-1.192,2.136,2.136,0,0,0-.831-.828A2.31,2.31,0,0,0,41.728-3.062ZM94.754-3l-.489.5a1.756,1.756,0,0,0-1.192-.592.9.9,0,0,0-.634.244.754.754,0,0,0-.264.57.845.845,0,0,0,.218.548,3.058,3.058,0,0,0,.914.624,3.412,3.412,0,0,1,1.153.847,1.543,1.543,0,0,1,.3.928,1.666,1.666,0,0,1-.511,1.232,1.745,1.745,0,0,1-1.278.5A2.233,2.233,0,0,1,92,2.193a2.12,2.12,0,0,1-.769-.613l.478-.543a1.661,1.661,0,0,0,1.235.657,1.113,1.113,0,0,0,.778-.293.906.906,0,0,0,.321-.689A.884.884,0,0,0,93.826.13a3.412,3.412,0,0,0-.957-.63,3.068,3.068,0,0,1-1.088-.814,1.534,1.534,0,0,1-.288-.917,1.492,1.492,0,0,1,.46-1.118,1.6,1.6,0,0,1,1.161-.445A2.406,2.406,0,0,1,94.754-3Zm7.109-.646V2.264h-.749V1.248a3.258,3.258,0,0,1-1.072.874,2.9,2.9,0,0,1-1.3.293A2.884,2.884,0,0,1,96.6,1.506a3.049,3.049,0,0,1-.888-2.212,2.993,2.993,0,0,1,.9-2.182,2.921,2.921,0,0,1,2.155-.907,2.787,2.787,0,0,1,1.316.309,3,3,0,0,1,1.034.928V-3.643Zm-3.037.581a2.291,2.291,0,0,0-1.171.312,2.286,2.286,0,0,0-.854.876,2.4,2.4,0,0,0-.317,1.193A2.4,2.4,0,0,0,96.8.511a2.33,2.33,0,0,0,.859.887,2.246,2.246,0,0,0,1.158.317A2.373,2.373,0,0,0,100,1.4a2.2,2.2,0,0,0,.859-.851,2.43,2.43,0,0,0,.3-1.209,2.351,2.351,0,0,0-.675-1.714A2.236,2.236,0,0,0,98.826-3.062Zm7.057-2.861v.744a1.88,1.88,0,0,0-.717-.179.7.7,0,0,0-.369.09.4.4,0,0,0-.185.206,2.856,2.856,0,0,0-.038.622v.8h1.233v.657h-1.234l0,5.25h-.76v-5.25h-.776v-.657h.776v-.923a2.505,2.505,0,0,1,.117-.907.931.931,0,0,1,.4-.437A1.3,1.3,0,0,1,105-6.075,3.212,3.212,0,0,1,105.883-5.923ZM111.792.3l.641.337a3.494,3.494,0,0,1-.728,1,2.892,2.892,0,0,1-.929.578,3.241,3.241,0,0,1-1.168.2,2.823,2.823,0,0,1-2.26-.947,3.2,3.2,0,0,1-.815-2.142,3.158,3.158,0,0,1,.69-2,2.821,2.821,0,0,1,2.342-1.118,2.914,2.914,0,0,1,2.412,1.145,3.2,3.2,0,0,1,.652,2.019h-5.315a2.4,2.4,0,0,0,.658,1.687,2.1,2.1,0,0,0,1.571.658,2.525,2.525,0,0,0,.878-.157,2.308,2.308,0,0,0,.726-.416A3.544,3.544,0,0,0,111.792.3Zm0-1.591a2.521,2.521,0,0,0-.443-.972,2.1,2.1,0,0,0-.769-.586,2.356,2.356,0,0,0-1.006-.223,2.166,2.166,0,0,0-1.495.559,2.527,2.527,0,0,0-.69,1.221Zm2.793-4.549h.76v2.193h1.205v.657h-1.205v5.25h-.76v-5.25h-1.037v-.657h1.037Zm2.348,2.193h.8l2.03,4.548,1.971-4.548h.809l-3.523,8.067h-.8l1.137-2.608Zm15.6,2.953.541.573a12.353,12.353,0,0,1-.989.8q.326.3.85.824.414.412.711.76h-1.113L131.47,1.172a6.838,6.838,0,0,1-1.622,1.048,3.588,3.588,0,0,1-1.319.244,2.067,2.067,0,0,1-1.482-.529,1.746,1.746,0,0,1-.559-1.322,2.236,2.236,0,0,1,.377-1.2A7,7,0,0,1,128.4-2.1a7.229,7.229,0,0,1-.843-1.169,1.62,1.62,0,0,1-.187-.719,1.239,1.239,0,0,1,.461-.988,1.965,1.965,0,0,1,1.325-.456,2.056,2.056,0,0,1,.912.2,1.509,1.509,0,0,1,.63.54,1.312,1.312,0,0,1,.217.719,1.63,1.63,0,0,1-.283.855A5.7,5.7,0,0,1,129.52-1.96L130.73-.69l.793.8A12.57,12.57,0,0,0,132.529-.69Zm-3.5-1.867a4,4,0,0,0,.876-.885,1.026,1.026,0,0,0,.207-.548.585.585,0,0,0-.269-.478,1.17,1.17,0,0,0-.716-.2,1.1,1.1,0,0,0-.691.206.6.6,0,0,0-.267.489.8.8,0,0,0,.109.407A6.421,6.421,0,0,0,129.026-2.557Zm-.1,1.057A6.468,6.468,0,0,0,127.6-.281a1.5,1.5,0,0,0-.316.839,1.062,1.062,0,0,0,.386.807,1.357,1.357,0,0,0,.946.35,2.105,2.105,0,0,0,.832-.174A6.735,6.735,0,0,0,130.916.6l-1.26-1.3Q129.33-1.039,128.929-1.5ZM140.58-3l-.489.5a1.756,1.756,0,0,0-1.192-.592.9.9,0,0,0-.634.244.754.754,0,0,0-.264.57.845.845,0,0,0,.218.548,3.058,3.058,0,0,0,.914.624,3.412,3.412,0,0,1,1.153.847,1.543,1.543,0,0,1,.3.928,1.666,1.666,0,0,1-.511,1.232,1.745,1.745,0,0,1-1.278.5,2.233,2.233,0,0,1-.976-.223,2.12,2.12,0,0,1-.769-.613l.478-.543a1.661,1.661,0,0,0,1.235.657,1.113,1.113,0,0,0,.778-.293.906.906,0,0,0,.321-.689.884.884,0,0,0-.212-.581,3.412,3.412,0,0,0-.957-.63,3.068,3.068,0,0,1-1.088-.814,1.534,1.534,0,0,1-.288-.917,1.492,1.492,0,0,1,.459-1.118,1.6,1.6,0,0,1,1.161-.445A2.406,2.406,0,0,1,140.58-3Zm6.2,3.3.641.337a3.494,3.494,0,0,1-.728,1,2.892,2.892,0,0,1-.929.578,3.241,3.241,0,0,1-1.168.2,2.823,2.823,0,0,1-2.26-.947,3.2,3.2,0,0,1-.815-2.142,3.158,3.158,0,0,1,.69-2,2.821,2.821,0,0,1,2.342-1.118,2.914,2.914,0,0,1,2.412,1.145,3.2,3.2,0,0,1,.652,2.019H142.3a2.4,2.4,0,0,0,.658,1.687,2.1,2.1,0,0,0,1.571.658,2.525,2.525,0,0,0,.878-.157,2.309,2.309,0,0,0,.726-.416A3.544,3.544,0,0,0,146.776.3Zm0-1.591a2.521,2.521,0,0,0-.443-.972,2.1,2.1,0,0,0-.769-.586,2.356,2.356,0,0,0-1.006-.223,2.166,2.166,0,0,0-1.495.559,2.527,2.527,0,0,0-.69,1.221Zm7.863-1.129-.6.375a2.524,2.524,0,0,0-2.131-1.037,2.465,2.465,0,0,0-1.792.694A2.265,2.265,0,0,0,149.4-.7a2.394,2.394,0,0,0,.328,1.215,2.3,2.3,0,0,0,.9.884,2.617,2.617,0,0,0,1.282.315A2.593,2.593,0,0,0,154.037.678l.6.4a2.845,2.845,0,0,1-1.137.989,3.632,3.632,0,0,1-1.626.352,3.212,3.212,0,0,1-2.323-.89,2.9,2.9,0,0,1-.923-2.166,3.094,3.094,0,0,1,.432-1.593,3.041,3.041,0,0,1,1.186-1.148,3.461,3.461,0,0,1,1.688-.413,3.6,3.6,0,0,1,1.132.179,3.148,3.148,0,0,1,.926.467A2.539,2.539,0,0,1,154.64-2.416Zm1.24-1.227h.76V-.885A5.884,5.884,0,0,0,156.749.5a1.549,1.549,0,0,0,.623.858,1.89,1.89,0,0,0,1.1.315,1.85,1.85,0,0,0,1.079-.307,1.569,1.569,0,0,0,.612-.806,5.693,5.693,0,0,0,.114-1.449V-3.643h.776v2.9a4.585,4.585,0,0,1-.285,1.84,2.177,2.177,0,0,1-.858.969,2.71,2.71,0,0,1-1.436.35,2.739,2.739,0,0,1-1.441-.35,2.159,2.159,0,0,1-.863-.977A4.773,4.773,0,0,1,155.88-.8Zm6.446,0h.776v.863a2.726,2.726,0,0,1,.733-.763,1.446,1.446,0,0,1,.8-.252,1.386,1.386,0,0,1,.673.2l-.4.641a1.057,1.057,0,0,0-.4-.1,1.1,1.1,0,0,0-.733.312,1.973,1.973,0,0,0-.537.969A9.291,9.291,0,0,0,163.1.266v2h-.776ZM166.1-6.075a.6.6,0,0,1,.443.185.608.608,0,0,1,.184.445.6.6,0,0,1-.184.44.6.6,0,0,1-.443.185.6.6,0,0,1-.438-.185.6.6,0,0,1-.184-.44.608.608,0,0,1,.184-.445A.6.6,0,0,1,166.1-6.075Zm-.377,2.432h.76V2.264h-.76Zm2.88-2.193h.76v2.193h1.205v.657h-1.205v5.25h-.76v-5.25h-1.037v-.657H168.6Zm2.348,2.193h.8l2.03,4.548,1.971-4.548h.809L173.04,4.424h-.8l1.137-2.608Z" transform="translate(82.87 85.871)" fill="#f82b60"/>
      <path id="Path_135" data-name="Path 135" d="M48.44-3.676h1.139l.933,2.639,1-2.639h.7L53.2-1.066l.934-2.609h1.147L53.586.963h-.738L51.859-1.68,50.84.963h-.729Zm9.58-.119a2.459,2.459,0,0,1,1.234.328,2.372,2.372,0,0,1,.9.891,2.394,2.394,0,0,1,.324,1.215,2.436,2.436,0,0,1-.326,1.228,2.354,2.354,0,0,1-.889.893,2.455,2.455,0,0,1-1.241.322,2.314,2.314,0,0,1-1.7-.71,2.355,2.355,0,0,1-.706-1.725,2.347,2.347,0,0,1,.8-1.812A2.329,2.329,0,0,1,58.02-3.795Zm.019,1.1a1.2,1.2,0,0,0-.9.377,1.34,1.34,0,0,0-.361.966,1.365,1.365,0,0,0,.357.981,1.193,1.193,0,0,0,.9.375,1.207,1.207,0,0,0,.91-.379,1.354,1.354,0,0,0,.363-.976,1.346,1.346,0,0,0-.357-.97A1.206,1.206,0,0,0,58.04-2.7Zm3.287-.976h1.164v.533a1.987,1.987,0,0,1,.663-.49,1.938,1.938,0,0,1,.8-.162,1.479,1.479,0,0,1,.785.213,1.541,1.541,0,0,1,.563.623,1.88,1.88,0,0,1,.681-.623,1.856,1.856,0,0,1,.881-.213,1.631,1.631,0,0,1,.87.23,1.33,1.33,0,0,1,.54.6,3.212,3.212,0,0,1,.164,1.207V.963H67.262V-1.39a2.013,2.013,0,0,0-.2-1.068.672.672,0,0,0-.588-.279.893.893,0,0,0-.535.171,1.008,1.008,0,0,0-.352.471,2.928,2.928,0,0,0-.115.966V.963H64.3V-1.284a3.163,3.163,0,0,0-.092-.9.816.816,0,0,0-.276-.416.725.725,0,0,0-.445-.136.876.876,0,0,0-.528.173,1.03,1.03,0,0,0-.355.484,2.991,2.991,0,0,0-.118.981V.963H61.327ZM74.094-1.019H70.355a1.245,1.245,0,0,0,.433.787,1.358,1.358,0,0,0,.9.292A1.552,1.552,0,0,0,72.807-.4l.981.46a2.315,2.315,0,0,1-.878.77,2.747,2.747,0,0,1-1.215.249A2.4,2.4,0,0,1,69.916.394a2.343,2.343,0,0,1-.686-1.725,2.422,2.422,0,0,1,.684-1.763,2.3,2.3,0,0,1,1.716-.7,2.383,2.383,0,0,1,1.782.7A2.535,2.535,0,0,1,74.1-1.241ZM72.93-1.936a1.168,1.168,0,0,0-.455-.631,1.319,1.319,0,0,0-.788-.243,1.393,1.393,0,0,0-.854.273,1.521,1.521,0,0,0-.427.6Zm2.01-1.74H76.1V-3.2a2.792,2.792,0,0,1,.717-.464,1.734,1.734,0,0,1,.658-.131,1.592,1.592,0,0,1,1.171.482,1.654,1.654,0,0,1,.4,1.211V.963H77.9V-1.068a5.139,5.139,0,0,0-.074-1.1.755.755,0,0,0-.259-.415.727.727,0,0,0-.457-.143.857.857,0,0,0-.606.236,1.262,1.262,0,0,0-.351.654A5.273,5.273,0,0,0,76.1-.9V.963H74.941Z" transform="translate(87.053 86.795)" fill="#fff"/>
    </g>
  </g>
</svg>
