<?xml version="1.0" encoding="utf-8"?>
<!-- Generator: Adobe Illustrator 23.0.1, SVG Export Plug-In . SVG Version: 6.00 Build 0)  -->
<svg version="1.1" id="Layer_1" xmlns="http://www.w3.org/2000/svg" xmlns:xlink="http://www.w3.org/1999/xlink" x="0px" y="0px"
	 viewBox="0 0 14 14" style="enable-background:new 0 0 14 14;" xml:space="preserve">
<style type="text/css">
	.st0{fill:#6742C0;}
</style>
<g>
	<g>
		<g id="ic_driverduty">
			<g id="Group_7" transform="translate(-0.5 1.3)">
				<g id="Path_12" transform="translate(9.856 5.597)">
					<path class="st0" d="M0.1,0h2.4v1H0.1V0z"/>
					<path class="st0" d="M0.1,0h2.4v1H0.1V0z"/>
				</g>
				<g id="Path_11" transform="translate(9.856 7.68)">
					<path class="st0" d="M0.1,0.1h3.2v1H0.1V0.1z"/>
					<path class="st0" d="M0.1,0.1h3.2v1H0.1V0.1z"/>
				</g>
				<g id="Path_10" transform="translate(14.856 9.764)">
					<path class="st0" d="M-4.9,0.2h4.4v1h-4.4V0.2z"/>
					<path class="st0" d="M-4.9,0.2h4.4v1h-4.4V0.2z"/>
				</g>
				<g id="Group_6" transform="translate(1 0.7)">
					<g id="Group_1" transform="translate(0 4.68)">
						<path id="Path_1" class="st0" d="M4,2.6c-1.2,0-2.3,1-2.3,2.3h4.6C6.3,3.5,5.3,2.6,4,2.6z"/>
						<path id="Path_2" class="st0" d="M5.3,0C5.1,0,5,0.1,4.9,0.1L4.2,1.3c-0.1,0.1-0.3,0.1-0.4,0c0,0,0,0-0.1-0.1L3,0.1
							C2.9,0.1,2.8,0,2.6,0C1.1,0-0.2,1.2-0.3,2.8v2.7c0,0,0,0.1,0.1,0.1h1.6c0.2,0,0.4-0.2,0.4-0.4c0-0.2-0.2-0.4-0.4-0.4H1.1
							C1.1,3.2,2.4,2,4,2s2.8,1.2,2.8,2.8H6.6C6.3,4.8,6.1,5,6.1,5.2c0,0.2,0.2,0.4,0.4,0.4h1.6c0,0,0.1,0,0.1-0.1V2.8
							C8.1,1.2,6.8,0,5.3,0z"/>
					</g>
					<path id="Path_3" class="st0" d="M3.9-0.2c-1,0-1.9,0.8-1.9,2s0.8,1.9,1.9,1.9s2-0.8,2-2S5-0.2,3.9-0.2L3.9-0.2z M3.9,3
						C3.2,3,2.5,2.4,2.5,1.7s0.6-1.2,1.4-1.2S5.3,1,5.3,1.8l0,0C5.3,2.5,4.7,3,3.9,3z"/>
				</g>
			</g>
		</g>
	</g>
</g>
</svg>
