<svg xmlns="http://www.w3.org/2000/svg" xmlns:xlink="http://www.w3.org/1999/xlink" width="220" height="86" viewBox="0 0 220 86">
  <defs>
    <clipPath id="clip-Logo_abhaya">
      <rect width="220" height="86"/>
    </clipPath>
  </defs>
  <g id="Logo_abhaya" clip-path="url(#clip-Logo_abhaya)">
    <g id="Group_1224" data-name="Group 1224" transform="translate(0 -1.5)">
      <path id="Path_105" data-name="Path 105" d="M934.507,181.19a7.7,7.7,0,0,0-2.765.481,6.57,6.57,0,0,0-2.186,1.346,6.134,6.134,0,0,0-1.444,2.08,6.771,6.771,0,0,0-.522,2.7,7.011,7.011,0,0,0,.522,2.733,6.43,6.43,0,0,0,3.63,3.565,7.79,7.79,0,0,0,5.521,0,6.423,6.423,0,0,0,3.641-3.565,7,7,0,0,0,.522-2.733,6.769,6.769,0,0,0-.522-2.7,6.141,6.141,0,0,0-1.444-2.08,6.559,6.559,0,0,0-2.194-1.346A7.724,7.724,0,0,0,934.507,181.19Zm0,17.212a12.27,12.27,0,0,1-5.489-1.295,10.736,10.736,0,0,1-2.292-1.553,10.005,10.005,0,0,1-2.987-4.689,10.547,10.547,0,0,1-.424-3.035,9.975,9.975,0,0,1,3.41-7.586,11.275,11.275,0,0,1,2.284-1.55,11.774,11.774,0,0,1,2.635-.971,12.4,12.4,0,0,1,5.718,0,11.749,11.749,0,0,1,2.643.971,11.289,11.289,0,0,1,2.284,1.55,9.983,9.983,0,0,1,3.41,7.586,10.536,10.536,0,0,1-.424,3.043,10.008,10.008,0,0,1-2.984,4.681A10.748,10.748,0,0,1,940,197.1a12.24,12.24,0,0,1-5.49,1.3Zm16.379-21.062a9.46,9.46,0,0,1,3.23.5,6.838,6.838,0,0,1,2.276,1.314,5.367,5.367,0,0,1,1.354,1.843,5.168,5.168,0,0,1,.448,2.089,4.814,4.814,0,0,1-.473,2.194,4.918,4.918,0,0,1-1.216,1.566,5.158,5.158,0,0,1-1.664.946,5.551,5.551,0,0,1-1.819.318,5.434,5.434,0,0,1-1.8-.318,5.086,5.086,0,0,1-1.647-.946,4.981,4.981,0,0,1-1.208-1.566,4.823,4.823,0,0,1-.474-2.194,4.57,4.57,0,0,1,.155-1.158,3.347,3.347,0,0,1,.5-1.077H935.5v-3.508Zm2.121,7.26a1.719,1.719,0,0,0,1.118-.391,1.367,1.367,0,0,0,.481-1.128,1.647,1.647,0,0,0-.18-.792,2.023,2.023,0,0,0-.424-.555,1.859,1.859,0,0,0-.513-.334,1.582,1.582,0,0,0-.449-.13,1.483,1.483,0,0,0-.44.13,1.9,1.9,0,0,0-.506.334,2.031,2.031,0,0,0-.424.555,1.65,1.65,0,0,0-.18.792,1.4,1.4,0,0,0,.457,1.128,1.58,1.58,0,0,0,1.062.391ZM941.9,180.894H923.788v-3.508H941.9ZM968.474,198.4a9.315,9.315,0,0,1-3.4-.538,6,6,0,0,1-2.194-1.42,5.12,5.12,0,0,1-1.182-1.99,7.483,7.483,0,0,1-.351-2.268,4.677,4.677,0,0,1,.367-1.908,5.345,5.345,0,0,1,.97-1.485,7.717,7.717,0,0,1,1.371-1.167q.767-.514,1.574-.946t1.575-.824a11.452,11.452,0,0,0,1.37-.816,4.249,4.249,0,0,0,.971-.913,1.8,1.8,0,0,0,.367-1.109,2.04,2.04,0,0,0-.13-.734,1.838,1.838,0,0,0-.384-.612,1.792,1.792,0,0,0-.62-.424,2.141,2.141,0,0,0-.841-.155,2.5,2.5,0,0,0-1.191.277,2.936,2.936,0,0,0-.889.718,3.957,3.957,0,0,0-.6.971,5.05,5.05,0,0,0-.326,1.035l-3.9-.929a9.956,9.956,0,0,1,.71-2.137,6.071,6.071,0,0,1,3.328-3.149,7.564,7.564,0,0,1,2.863-.49,7.189,7.189,0,0,1,2.8.5,5.808,5.808,0,0,1,1.95,1.289,5.038,5.038,0,0,1,1.133,1.8,5.934,5.934,0,0,1,.367,2.04,5.014,5.014,0,0,1-.367,1.974,5.432,5.432,0,0,1-.971,1.534,7.873,7.873,0,0,1-1.37,1.2,16.268,16.268,0,0,1-1.575.96q-.807.433-1.574.824a14.163,14.163,0,0,0-1.37.792,4.217,4.217,0,0,0-.971.857,1.6,1.6,0,0,0-.367,1.028,1.828,1.828,0,0,0,.758,1.607,3.612,3.612,0,0,0,2.1.53,4.1,4.1,0,0,0,2.014-.473,5.3,5.3,0,0,0,1.469-1.183,6.683,6.683,0,0,0,1-1.55,12.662,12.662,0,0,0,.62-1.574h1.729q.114.376.293.864a10.055,10.055,0,0,0,.448,1.028,8.486,8.486,0,0,0,.627,1.053,5.293,5.293,0,0,0,.816.922,3.953,3.953,0,0,0,1.019.661,2.971,2.971,0,0,0,1.232.253,3.7,3.7,0,0,0,1.28-.2,2.579,2.579,0,0,0,.873-.513,1.9,1.9,0,0,0,.5-.734,2.2,2.2,0,0,0,.138-.857,3.108,3.108,0,0,0-.131-.783,3.185,3.185,0,0,0-.44-.849l3.442-2.512a7.7,7.7,0,0,1,1.142,2.08,6.471,6.471,0,0,1-.2,4.748,6.065,6.065,0,0,1-1.477,2,6.621,6.621,0,0,1-2.108,1.259,7.085,7.085,0,0,1-2.479.44,6.832,6.832,0,0,1-1.933-.261,6.733,6.733,0,0,1-1.623-.71,6.477,6.477,0,0,1-1.306-1.044,7.328,7.328,0,0,1-.979-1.264,5.762,5.762,0,0,1-.971,1.191,7.621,7.621,0,0,1-1.395,1.052,7.929,7.929,0,0,1-1.7.752A6.389,6.389,0,0,1,968.474,198.4Zm9.481-21.062h1.908a9.088,9.088,0,0,1,2.9.424,6.363,6.363,0,0,1,2.113,1.142,4.774,4.774,0,0,1,1.289,1.689,4.893,4.893,0,0,1,.44,2.047,5.306,5.306,0,0,1-.554,2.506,5.138,5.138,0,0,1-1.485,1.746,6.39,6.39,0,0,1-2.146,1.028,9.514,9.514,0,0,1-2.537.334,9.174,9.174,0,0,1-2.667-.359,9.029,9.029,0,0,1-2.113-.93,8.439,8.439,0,0,1-1.631-1.289,11.762,11.762,0,0,1-1.208-1.436l.653-4.845q.359.489.752,1.053t.849,1.134a11.086,11.086,0,0,0,1,1.093,7.4,7.4,0,0,0,1.2.93,6.144,6.144,0,0,0,1.435.653,5.72,5.72,0,0,0,1.713.245,4.61,4.61,0,0,0,1.248-.147,2.576,2.576,0,0,0,.849-.4,1.488,1.488,0,0,0,.48-.588,1.772,1.772,0,0,0,.147-.726,1.313,1.313,0,0,0-.619-1.24,4.479,4.479,0,0,0-2.1-.359h-1.908Zm31.373,21.062a8.119,8.119,0,0,1-2.76-.426,7.3,7.3,0,0,1-2.056-1.117,7.817,7.817,0,0,1-1.517-1.574,17.677,17.677,0,0,1-1.15-1.811q-.514-.93-.961-1.811a12.754,12.754,0,0,0-.938-1.575,4.7,4.7,0,0,0-1.076-1.118,2.3,2.3,0,0,0-1.387-.424,2.451,2.451,0,0,0-1.273.3,2.627,2.627,0,0,0-.815.742,2.906,2.906,0,0,0-.441.938,3.6,3.6,0,0,0-.13.905,5.155,5.155,0,0,0,.13,1.166,4.093,4.093,0,0,0,.457,1.128,6.525,6.525,0,0,0,.873,1.15,11.135,11.135,0,0,0,1.378,1.224l-2.512,3.216a11.307,11.307,0,0,1-2.26-1.892,9.637,9.637,0,0,1-1.411-2.015,7.863,7.863,0,0,1-.726-2.031,9.864,9.864,0,0,1-.2-1.941,7.824,7.824,0,0,1,.424-2.537,6.645,6.645,0,0,1,1.281-2.235,6.34,6.34,0,0,1,2.162-1.591,7.288,7.288,0,0,1,3.083-.6,6.827,6.827,0,0,1,2.513.424,6.552,6.552,0,0,1,1.884,1.118,8.3,8.3,0,0,1,1.42,1.574,20.819,20.819,0,0,1,1.127,1.811q.514.93.987,1.811a10.348,10.348,0,0,0,1.028,1.575,4.83,4.83,0,0,0,1.248,1.117,3.049,3.049,0,0,0,1.624.424,3.526,3.526,0,0,0,2.839-1.329,4.439,4.439,0,0,0,.752-1.42,5.573,5.573,0,0,0,.261-1.721,8.01,8.01,0,0,0-.824-3.679,8.471,8.471,0,0,0-2.194-2.749,9.966,9.966,0,0,0-3.141-1.729,11.266,11.266,0,0,0-3.663-.6v-3.7a17.469,17.469,0,0,1,3.769.4,15.121,15.121,0,0,1,3.368,1.158,13.355,13.355,0,0,1,2.84,1.852,11.748,11.748,0,0,1,2.195,2.48,11.482,11.482,0,0,1,1.411,3.059,12.416,12.416,0,0,1,.5,3.564,10.388,10.388,0,0,1-.627,3.8,7.262,7.262,0,0,1-1.729,2.641,6.905,6.905,0,0,1-2.578,1.549,9.8,9.8,0,0,1-3.181.506Zm-4.293-17.359h-1.73L996.8,174.6v-.229l2.79-2.724,4.584,5.661,7.734-9.151,2.969,2.9v.229Zm21.307,24.08a6.3,6.3,0,0,1-2.21-.367,5.326,5.326,0,0,1-1.689-.987,4.383,4.383,0,0,1-1.086-1.444,4.107,4.107,0,0,1-.383-1.754,3.952,3.952,0,0,1,.367-1.664,4.224,4.224,0,0,1,1.06-1.411,5.307,5.307,0,0,1,1.68-.979,6.355,6.355,0,0,1,2.227-.367,6.543,6.543,0,0,1,1.745.212,7.511,7.511,0,0,1,1.4.531,7.026,7.026,0,0,1,1.134.71q.506.392.946.752a9.212,9.212,0,0,0,.849-1.567,10.024,10.024,0,0,0,.506-1.541,10.561,10.561,0,0,0,.245-1.493q.065-.734.065-1.435a12.587,12.587,0,0,0-.8-4.65,10.917,10.917,0,0,0-2.154-3.475,11.114,11.114,0,0,0-3.149-2.358,14.643,14.643,0,0,0-3.768-1.3l.653-3.132a15.37,15.37,0,0,1,5.31,1.729,13.974,13.974,0,0,1,4.005,3.279,14.162,14.162,0,0,1,2.521,4.5,16.43,16.43,0,0,1,.872,5.4,12.19,12.19,0,0,1-.269,2.585,16.194,16.194,0,0,1-.677,2.325,13.441,13.441,0,0,1-.9,1.94,11.69,11.69,0,0,1-.938,1.42,8.158,8.158,0,0,0,1.019.864,2.062,2.062,0,0,0,1.232.392,2.744,2.744,0,0,0,1.68-.6,4.238,4.238,0,0,0,1.305-1.876l2.9,1.517a7.658,7.658,0,0,1-1.191,2.113,5.938,5.938,0,0,1-1.462,1.3,5.142,5.142,0,0,1-1.615.653,7.826,7.826,0,0,1-1.64.179,5.843,5.843,0,0,1-1.273-.13,5.473,5.473,0,0,1-1.142-.391,7.073,7.073,0,0,1-1.093-.644,13.344,13.344,0,0,1-1.093-.873,7.359,7.359,0,0,1-2.341,1.509,7.528,7.528,0,0,1-2.845.529Zm-.049-5.873a2.028,2.028,0,0,0-1.322.4,1.17,1.17,0,0,0-.489.922,1.112,1.112,0,0,0,.179.626,1.668,1.668,0,0,0,.457.457,2.019,2.019,0,0,0,.612.277,2.464,2.464,0,0,0,.644.09,3.621,3.621,0,0,0,1.624-.391,5.993,5.993,0,0,0,1.476-1.044,5.6,5.6,0,0,0-1.379-.955A4.013,4.013,0,0,0,1026.293,199.251Z" transform="translate(-825.003 -155.311)" fill="#0055a4"/>
      <path id="Path_3367" data-name="Path 3367" d="M746.279,191.268a53.737,53.737,0,0,0-5.982,6.461s-1.661,2.045.515,2.479,6.79.712,6.79.712l2.486.047.18.02,2.035-1.814-9.325-.663s-.547-.1-.237-.486,6.128-6.143,6.128-6.143l.164.015-2.648-.845Z" transform="translate(-731.907 -141.361)" fill="#257d34"/>
      <path id="Path_3368" data-name="Path 3368" d="M798.767,252.359a53.754,53.754,0,0,0-.277,8.8s.088,2.633,2.014,1.533,5.592-3.917,5.592-3.917L808,257.182l.149-.1.346-2.7-7.473,5.616s-.478.283-.5-.212.6-8.657.6-8.657l.134-.1-2.553,1.1Z" transform="translate(-774.25 -184.6)" fill="#257d34"/>
      <path id="Path_3369" data-name="Path 3369" d="M939.607,91.2a53.739,53.739,0,0,0,3.564-8.052s.908-2.473-1.291-2.178-6.654,1.528-6.654,1.528l-2.367.761-.177.039-1.337,2.376,9.036-2.4s.55-.083.382.383-3.806,7.8-3.806,7.8l-.16.039,2.779-.059Z" transform="translate(-870.079 -61.983)" fill="#257d34"/>
      <path id="Path_3370" data-name="Path 3370" d="M878.4,44.87a53.751,53.751,0,0,0-2.294-8.5s-.85-2.494-2.373-.881-4.212,5.373-4.212,5.373l-1.36,2.081-.113.142.455,2.688,5.517-7.547s.375-.41.538.058,1.947,8.456,1.947,8.456l-.1.131,2.123-1.794Z" transform="translate(-824.443 -28.817)" fill="#257d34"/>
      <path id="Path_3371" data-name="Path 3371" d="M806.777,61.693a53.773,53.773,0,0,0-7.727-4.222s-2.389-1.111-2.278,1.105.968,6.758.968,6.758l.562,2.422.024.18,2.256,1.53-1.635-9.2s-.037-.554.413-.348,7.454,4.442,7.454,4.442l.025.163.173-2.774Z" transform="translate(-773.057 -44.856)" fill="#257d34"/>
      <path id="Path_3372" data-name="Path 3372" d="M811.873,138.213" transform="translate(-783.946 -103.268)" fill="#fff"/>
      <path id="Path_3373" data-name="Path 3373" d="M751.208,119.278a53.722,53.722,0,0,0-8.766.834s-2.6.419-1.267,2.191,4.589,5.054,4.589,5.054l1.823,1.691.121.135,2.726,0-6.513-6.706s-.341-.439.147-.52,8.663-.5,8.663-.5l.112.121-1.412-2.395Z" transform="translate(-732.703 -89.551)" fill="#257d34"/>
      <path id="Path_3374" data-name="Path 3374" d="M750.524,162.207s-1.177,3.738-8.851,2.489c0,0-3.627-.676-9.309-4.319l-1.8-1.075s-.969-.65.292-1.645a78.255,78.255,0,0,1,8.964-3.966s7.258-2.114,10.735,2.011c0,0,.263,2.083-1.276,1.527a8.375,8.375,0,0,0-7.357-1.774s-5.629,1.447-7.541,3.339c0,0,.9,1.416,7.745,3.83,0,0,4.285,1.045,6.636-1.1C748.767,161.528,750.215,160.639,750.524,162.207Z" transform="translate(-725.074 -114.037)" fill="#0055a4"/>
      <path id="Path_3375" data-name="Path 3375" d="M779.639,212.122s1.377,3.669-5.435,7.417c0,0-3.273,1.7-9.993,2.337l-2.076.261s-1.164.085-.784-1.476a78.311,78.311,0,0,1,4.614-8.649s4.412-6.138,9.692-5.033c0,0,1.491,1.479-.063,1.989a8.375,8.375,0,0,0-6.887,3.138s-3.54,4.609-3.88,7.277c0,0,1.583.559,8.46-1.759,0,0,4.018-1.818,4.55-4.954C777.836,212.671,778.429,211.078,779.639,212.122Z" transform="translate(-747.467 -152.748)" fill="#0055a4"/>
      <path id="Path_3376" data-name="Path 3376" d="M842.955,237.379s3.492,1.778.992,9.141c0,0-1.267,3.465-5.8,8.467l-1.357,1.593s-.8.847-1.574-.56a78.313,78.313,0,0,1-2.43-9.5s-.885-7.508,3.758-10.255c0,0,2.1.085,1.3,1.511a8.376,8.376,0,0,0-2.966,6.963s.5,5.79,2.047,7.989c0,0,1.545-.656,5.057-7.006,0,0,1.739-4.053.016-6.726C841.995,239,841.357,237.425,842.955,237.379Z" transform="translate(-798.976 -173.961)" fill="#0055a4"/>
      <path id="Path_3377" data-name="Path 3377" d="M926.089,123.553s-.332-3.905,7.242-5.666c0,0,3.611-.752,10.252.458l2.069.312s1.143.234.355,1.633a78.293,78.293,0,0,1-6.785,7.075s-5.911,4.713-10.694,2.218c0,0-1.034-1.827.6-1.9a8.376,8.376,0,0,0,7.48-1.154s4.656-3.477,5.706-5.954c0,0-1.372-.967-8.619-.6,0,0-4.361.661-5.722,3.535C927.974,123.513,926.971,124.886,926.089,123.553Z" transform="translate(-866.288 -88.447)" fill="#0055a4"/>
      <path id="Path_3378" data-name="Path 3378" d="M889.334,66.983s-2.714-2.827,2.066-8.96c0,0,2.335-2.857,8.258-6.093l1.805-1.059s1.036-.537,1.3,1.046a78.277,78.277,0,0,1-.825,9.768s-1.631,7.382-6.918,8.451c0,0-1.954-.77-.727-1.853a8.375,8.375,0,0,0,5.089-5.6s1.433-5.632.691-8.218c0,0-1.674.111-7.078,4.955,0,0-2.974,3.257-2.224,6.348C890.774,65.767,890.858,67.464,889.334,66.983Z" transform="translate(-839.238 -40.236)" fill="#0055a4"/>
      <path id="Path_3379" data-name="Path 3379" d="M837.59,56.922s-3.919.005-5.043-7.689c0,0-.449-3.662,1.311-10.179l.483-2.036S834.67,35.9,836,36.8a78.265,78.265,0,0,1,6.484,7.351s4.2,6.283,1.32,10.841c0,0-1.907.879-1.841-.756a8.375,8.375,0,0,0-.527-7.55s-3.077-4.93-5.457-6.182c0,0-1.078,1.286-1.316,8.539,0,0,.3,4.4,3.046,6C837.708,55.041,838.992,56.154,837.59,56.922Z" transform="translate(-798.815 -29.902)" fill="#0055a4"/>
      <circle id="Ellipse_370" data-name="Ellipse 370" cx="1.278" cy="1.278" r="1.278" transform="translate(34.568 3.572)" fill="#0055a4"/>
      <circle id="Ellipse_371" data-name="Ellipse 371" cx="1.278" cy="1.278" r="1.278" transform="translate(21.922 9.534)" fill="#257d34"/>
      <circle id="Ellipse_372" data-name="Ellipse 372" cx="1.278" cy="1.278" r="1.278" transform="translate(11.672 17.194)" fill="#0055a4"/>
      <circle id="Ellipse_373" data-name="Ellipse 373" cx="1.278" cy="1.278" r="1.278" transform="translate(5.139 29.634)" fill="#257d34"/>
      <circle id="Ellipse_374" data-name="Ellipse 374" cx="1.278" cy="1.278" r="1.278" transform="translate(2 42.836)" fill="#0055a4"/>
      <circle id="Ellipse_375" data-name="Ellipse 375" cx="1.278" cy="1.278" r="1.278" transform="translate(4.807 57.286)" fill="#257d34"/>
      <circle id="Ellipse_376" data-name="Ellipse 376" cx="1.278" cy="1.278" r="1.278" transform="translate(11.251 69.033)" fill="#0055a4"/>
      <circle id="Ellipse_377" data-name="Ellipse 377" cx="1.278" cy="1.278" r="1.278" transform="translate(23.047 78.701)" fill="#257d34"/>
      <circle id="Ellipse_378" data-name="Ellipse 378" cx="1.278" cy="1.278" r="1.278" transform="translate(35.312 83.491)" fill="#0055a4"/>
      <circle id="Ellipse_379" data-name="Ellipse 379" cx="1.278" cy="1.278" r="1.278" transform="translate(49.694 3)" fill="#257d34"/>
      <circle id="Ellipse_380" data-name="Ellipse 380" cx="1.278" cy="1.278" r="1.278" transform="translate(63 7.991)" fill="#0055a4"/>
      <circle id="Ellipse_381" data-name="Ellipse 381" cx="1.278" cy="1.278" r="1.278" transform="translate(73.551 17.285)" fill="#257d34"/>
      <circle id="Ellipse_382" data-name="Ellipse 382" cx="1.278" cy="1.278" r="1.278" transform="translate(80.48 28.897)" fill="#0055a4"/>
      <path id="Path_107" data-name="Path 107" d="M933.011,269.362a11.042,11.042,0,0,1,3.341.5,9.09,9.09,0,0,1,2.787,1.418,7.831,7.831,0,0,1,2,2.227,7.531,7.531,0,0,1,1,2.936,9.585,9.585,0,0,0,.4,1.378,5.309,5.309,0,0,0,.677,1.284,3.663,3.663,0,0,0,1,.949,2.475,2.475,0,0,0,1.369.373,2.019,2.019,0,0,0,1-.246,2.343,2.343,0,0,0,.746-.65,2.975,2.975,0,0,0,.464-.932,3.778,3.778,0,0,0,.16-1.1,5.343,5.343,0,0,0-.416-2.137,5.975,5.975,0,0,0-1.087-1.695,6.3,6.3,0,0,0-1.508-1.208,6.125,6.125,0,0,0-1.667-.671l.394-2.419a11.144,11.144,0,0,1,1.614.484,10.1,10.1,0,0,1,1.615.789,8.961,8.961,0,0,1,1.487,1.126,7.208,7.208,0,0,1,1.22,1.5,7.616,7.616,0,0,1,.826,1.9,8.469,8.469,0,0,1,.3,2.345,6.868,6.868,0,0,1-.409,2.5,4.792,4.792,0,0,1-1.127,1.736,4.472,4.472,0,0,1-1.683,1.018,6.4,6.4,0,0,1-2.078.33,4.31,4.31,0,0,1-1.284-.186,4.77,4.77,0,0,1-1.108-.5,5.052,5.052,0,0,1-.916-.724,5.65,5.65,0,0,1-.709-.858,4.322,4.322,0,0,1-1.875,1.716,6.056,6.056,0,0,1-2.623.554,4.23,4.23,0,0,1-1.064-.144,5.235,5.235,0,0,1-1.083-.415,4.956,4.956,0,0,1-.985-.672,3.822,3.822,0,0,1-.767-.911,5.089,5.089,0,0,1-.746.986,4.031,4.031,0,0,1-.848.666,3.53,3.53,0,0,1-.905.373,3.734,3.734,0,0,1-.922.117,4.273,4.273,0,0,1-1.546-.282,4.118,4.118,0,0,1-1.3-.794,3.769,3.769,0,0,1-1.236-2.845,3.593,3.593,0,0,1,.342-1.567,3.836,3.836,0,0,1,.916-1.225,4.351,4.351,0,0,1,2.877-1.087,3.621,3.621,0,0,1,2.371.8,5.01,5.01,0,0,1,.815.826q.362.464.692.943t.661.945a5.254,5.254,0,0,0,.725.826,3.282,3.282,0,0,0,.879.581,2.707,2.707,0,0,0,1.124.218,2.3,2.3,0,0,0,1.066-.24,2.387,2.387,0,0,0,.79-.64,2.866,2.866,0,0,0,.491-.932,3.646,3.646,0,0,0,.171-1.118,5.234,5.234,0,0,0-.54-2.4,5.533,5.533,0,0,0-1.432-1.8,6.438,6.438,0,0,0-2.052-1.124,7.461,7.461,0,0,0-2.392-.389Zm-1.737,9.8a2.263,2.263,0,0,0-.288-.5,2.567,2.567,0,0,0-.4-.426,1.888,1.888,0,0,0-.474-.293,1.274,1.274,0,0,0-.506-.107,1.669,1.669,0,0,0-.533.086,1.322,1.322,0,0,0-.448.25,1.227,1.227,0,0,0-.309.416,1.328,1.328,0,0,0-.118.57,1.352,1.352,0,0,0,.118.581,1.333,1.333,0,0,0,.309.426,1.294,1.294,0,0,0,.448.267,1.594,1.594,0,0,0,.533.091,1.244,1.244,0,0,0,.522-.117,2.058,2.058,0,0,0,.48-.309,2.47,2.47,0,0,0,.4-.437A2.158,2.158,0,0,0,931.275,279.167Zm2.867-7.418h-1.13l-4.252-4.209v-.149l1.822-1.779,2.995,3.7,5.051-5.977,1.939,1.9v.149Zm39.345-2.387a6.177,6.177,0,0,1,2.11.325,4.473,4.473,0,0,1,1.487.858,3.506,3.506,0,0,1,.884,1.2,3.382,3.382,0,0,1,.293,1.364,3.133,3.133,0,0,1-.309,1.433,3.224,3.224,0,0,1-.793,1.023,3.379,3.379,0,0,1-1.088.618,3.627,3.627,0,0,1-1.188.208,3.553,3.553,0,0,1-1.173-.208,3.316,3.316,0,0,1-1.076-.618,3.26,3.26,0,0,1-.789-1.023,3.134,3.134,0,0,1-.309-1.433,2.971,2.971,0,0,1,.1-.757,2.193,2.193,0,0,1,.326-.705H968.03a8.071,8.071,0,0,1,.986,1.091,7.066,7.066,0,0,1,.784,1.332,7.966,7.966,0,0,1,.517,1.582,8.629,8.629,0,0,1,.186,1.844,6.864,6.864,0,0,1-.409,2.5,4.8,4.8,0,0,1-1.127,1.739,4.474,4.474,0,0,1-1.684,1.018,6.412,6.412,0,0,1-2.078.33,4.243,4.243,0,0,1-1.066-.144,5.227,5.227,0,0,1-1.082-.415,4.939,4.939,0,0,1-.985-.672,3.812,3.812,0,0,1-.767-.911,5.1,5.1,0,0,1-.746.986,4.033,4.033,0,0,1-.847.666,3.531,3.531,0,0,1-.906.373,3.754,3.754,0,0,1-.922.117,4.276,4.276,0,0,1-1.545-.282,4.122,4.122,0,0,1-1.3-.794,3.772,3.772,0,0,1-1.235-2.845,3.586,3.586,0,0,1,.341-1.567,3.817,3.817,0,0,1,.916-1.225,4.353,4.353,0,0,1,2.877-1.088,3.623,3.623,0,0,1,2.371.8,5,5,0,0,1,.816.826q.362.464.693.943t.661.945a5.285,5.285,0,0,0,.724.826,3.289,3.289,0,0,0,.88.581,2.707,2.707,0,0,0,1.125.218,2.3,2.3,0,0,0,1.065-.24,2.391,2.391,0,0,0,.789-.64,2.872,2.872,0,0,0,.491-.932,3.65,3.65,0,0,0,.171-1.119,5.35,5.35,0,0,0-.416-2.137,5.965,5.965,0,0,0-1.087-1.694,6.276,6.276,0,0,0-1.508-1.21,6.135,6.135,0,0,0-1.667-.671l.394-2.419Zm-13.918,9.8a2.288,2.288,0,0,0-.288-.5,2.542,2.542,0,0,0-.4-.426,1.9,1.9,0,0,0-.474-.293,1.28,1.28,0,0,0-.506-.107,1.683,1.683,0,0,0-.533.085,1.318,1.318,0,0,0-.448.251,1.218,1.218,0,0,0-.309.416,1.319,1.319,0,0,0-.117.57,1.315,1.315,0,0,0,.426,1.007,1.3,1.3,0,0,0,.448.267,1.592,1.592,0,0,0,.533.091,1.239,1.239,0,0,0,.522-.118,2.037,2.037,0,0,0,.48-.309,2.507,2.507,0,0,0,.4-.436A2.182,2.182,0,0,0,959.569,279.167Zm15.3-5.062a1.121,1.121,0,0,0,.73-.256.894.894,0,0,0,.314-.737,1.082,1.082,0,0,0-.118-.517,1.325,1.325,0,0,0-.277-.362,1.213,1.213,0,0,0-.336-.218,1.029,1.029,0,0,0-.293-.085.966.966,0,0,0-.288.085,1.231,1.231,0,0,0-.331.218,1.336,1.336,0,0,0-.277.362,1.079,1.079,0,0,0-.118.517.915.915,0,0,0,.3.737A1.032,1.032,0,0,0,974.872,274.1Zm-18-2.4a9.9,9.9,0,0,1-1.9-.176,12.561,12.561,0,0,1-1.625-.421,10.191,10.191,0,0,1-1.252-.506,7.009,7.009,0,0,1-.794-.442l.928-2.163q.267.16.7.395a7.437,7.437,0,0,0,1.023.447,9.963,9.963,0,0,0,1.327.368,7.785,7.785,0,0,0,1.6.155,4.4,4.4,0,0,0,1.327-.187,3.523,3.523,0,0,0,1.018-.5,2.306,2.306,0,0,0,.655-.7,1.589,1.589,0,0,0,.229-.81,1.663,1.663,0,0,0-.223-.879,1.877,1.877,0,0,0-.6-.607,2.7,2.7,0,0,0-.847-.352,4.247,4.247,0,0,0-.975-.112,5.862,5.862,0,0,0-1.007.069,1.975,1.975,0,0,0-.581.181.66.66,0,0,0-.273.24.5.5,0,0,0-.069.234.266.266,0,0,0,.122.218.883.883,0,0,0,.309.139,2.724,2.724,0,0,0,.394.07c.123.013.245.02.368.021a3.258,3.258,0,0,0,.505-.043q.273-.042.528-.106c.17-.043.326-.087.469-.133a2.569,2.569,0,0,0,.341-.133l.458,2.046a4.594,4.594,0,0,1-1.05.517,4.1,4.1,0,0,1-1.337.2,5.068,5.068,0,0,1-1.535-.213,3.4,3.4,0,0,1-1.135-.591,2.523,2.523,0,0,1-.7-.89,2.575,2.575,0,0,1-.24-1.108,2.344,2.344,0,0,1,.372-1.317,3.155,3.155,0,0,1,1-.96,4.927,4.927,0,0,1,1.454-.586,7.5,7.5,0,0,1,1.743-.2,5.9,5.9,0,0,1,1.183.123,6.005,6.005,0,0,1,1.156.362,5.106,5.106,0,0,1,1.044.6,4.231,4.231,0,0,1,.847.842,3.881,3.881,0,0,1,.57,1.076,3.953,3.953,0,0,1,.208,1.31,3.682,3.682,0,0,1-.273,1.444,4.074,4.074,0,0,1-.719,1.146,4.635,4.635,0,0,1-1.039.864,7.281,7.281,0,0,1-1.225.6,7.3,7.3,0,0,1-2.477.466Zm41.21,2.11a4.2,4.2,0,0,1-.213,1.369,4.155,4.155,0,0,1-.592,1.135,4.966,4.966,0,0,1-.89.922,6.747,6.747,0,0,1-1.1.719,8.541,8.541,0,0,1-1.242.528,11.861,11.861,0,0,1-1.3.357,2.518,2.518,0,0,1,.288,1.215,3.2,3.2,0,0,1-.24,1.225,3.1,3.1,0,0,1-.682,1.029,3.344,3.344,0,0,1-1.071.709,3.793,3.793,0,0,1-2.792,0,3.341,3.341,0,0,1-1.071-.709,3.106,3.106,0,0,1-.682-1.029,3.2,3.2,0,0,1-.24-1.225,2.6,2.6,0,0,1,.277-1.215q-.682-.139-1.375-.336a10.206,10.206,0,0,1-1.343-.485,7.632,7.632,0,0,1-1.22-.676,4.631,4.631,0,0,1-.991-.906,4.1,4.1,0,0,1-.666-1.177,4.232,4.232,0,0,1-.246-1.481,3.555,3.555,0,0,1,.458-1.78,4.511,4.511,0,0,1,1.242-1.4,6.114,6.114,0,0,1,1.817-.917,7.167,7.167,0,0,1,2.2-.33,7.247,7.247,0,0,1,1.023.074,5.387,5.387,0,0,1,1.012.246,4.521,4.521,0,0,1,.917.437,3.33,3.33,0,0,1,.751.639,2.8,2.8,0,0,1,.512.873,3.221,3.221,0,0,1,.187,1.129,2.766,2.766,0,0,1-.24,1.151,2.962,2.962,0,0,1-.654.932,3.052,3.052,0,0,1-.981.627,3.188,3.188,0,0,1-1.214.229,3.1,3.1,0,0,1-1.119-.213,3.321,3.321,0,0,1-.992-.591,3.048,3.048,0,0,1-.714-.911,2.5,2.5,0,0,1-.278-1.173,2.6,2.6,0,0,1,.075-.618,2.957,2.957,0,0,1,.213-.6h-.085a2.242,2.242,0,0,0-.448.277,2.2,2.2,0,0,0-.432.453,2.433,2.433,0,0,0-.453,1.454,1.858,1.858,0,0,0,.395,1.2,3.114,3.114,0,0,0,1.173.842,9.368,9.368,0,0,0,1.929.591q1.151.24,2.664.442,1.514-.213,2.584-.458a7.54,7.54,0,0,0,1.753-.6,2.509,2.509,0,0,0,1-.842,2.143,2.143,0,0,0,.314-1.183,2.02,2.02,0,0,0-.181-.905,1.69,1.69,0,0,0-.581-.634,3.244,3.244,0,0,0-1.05-.432,6.734,6.734,0,0,0-1.588-.16v-2.292a9.461,9.461,0,0,1,2.872.378,5.669,5.669,0,0,1,1.918,1,3.723,3.723,0,0,1,1.071,1.391A4.257,4.257,0,0,1,998.083,273.817Zm-11.125-1.141a.7.7,0,0,0,.218.506.774.774,0,0,0,1.066.01.682.682,0,0,0,.218-.517.874.874,0,0,0-.2-.554,1.149,1.149,0,0,0-.543-.373,1.207,1.207,0,0,0-.565.394.877.877,0,0,0-.192.534Zm2.685,8.088a.98.98,0,0,0,.3-.048.818.818,0,0,0,.273-.149.746.746,0,0,0,.2-.256.844.844,0,0,0,.074-.365.8.8,0,0,0-.08-.362,1.056,1.056,0,0,0-.2-.277,1,1,0,0,0-.273-.191.516.516,0,0,0-.591-.005.96.96,0,0,0-.273.191.989.989,0,0,0-.2.283.952.952,0,0,0,0,.73.783.783,0,0,0,.191.255.749.749,0,0,0,.272.15A1.012,1.012,0,0,0,989.642,280.764Zm12.809-11.4a6.166,6.166,0,0,1,2.11.325,4.474,4.474,0,0,1,1.487.858,3.5,3.5,0,0,1,.884,1.2,3.375,3.375,0,0,1,.293,1.364,3.148,3.148,0,0,1-.309,1.435,3.222,3.222,0,0,1-.794,1.023,3.363,3.363,0,0,1-1.087.618,3.62,3.62,0,0,1-1.188.208,3.557,3.557,0,0,1-1.173-.208,3.318,3.318,0,0,1-1.076-.618,3.251,3.251,0,0,1-.788-1.023,3.135,3.135,0,0,1-.309-1.433,2.956,2.956,0,0,1,.1-.757,2.2,2.2,0,0,1,.325-.7H992.4v-2.292Zm1.385,4.742a1.121,1.121,0,0,0,.73-.256.892.892,0,0,0,.315-.737,1.071,1.071,0,0,0-.118-.517,1.308,1.308,0,0,0-.277-.362,1.217,1.217,0,0,0-.335-.218,1.028,1.028,0,0,0-.293-.085.966.966,0,0,0-.288.085,1.224,1.224,0,0,0-.33.218,1.319,1.319,0,0,0-.277.362,1.079,1.079,0,0,0-.117.517.916.916,0,0,0,.3.737,1.032,1.032,0,0,0,.693.257Zm23.013,8.984a4,4,0,0,1-1.225-.186,4.921,4.921,0,0,1-1.966-1.179,3.917,3.917,0,0,1-.623-.778,3.761,3.761,0,0,1-.634.778,5,5,0,0,1-.911.688,5.159,5.159,0,0,1-1.114.491,4.158,4.158,0,0,1-1.241.186,6.078,6.078,0,0,1-2.222-.35,3.914,3.914,0,0,1-1.434-.928,3.351,3.351,0,0,1-.772-1.3,4.9,4.9,0,0,1-.229-1.481,3.071,3.071,0,0,1,.24-1.247,3.5,3.5,0,0,1,.634-.97,5.037,5.037,0,0,1,.9-.762q.5-.335,1.029-.618t1.029-.539a7.458,7.458,0,0,0,.9-.533,2.782,2.782,0,0,0,.634-.6,1.178,1.178,0,0,0,.24-.725,1.339,1.339,0,0,0-.085-.48,1.2,1.2,0,0,0-.25-.4,1.178,1.178,0,0,0-.4-.277,1.4,1.4,0,0,0-.549-.1,1.635,1.635,0,0,0-.778.181,1.921,1.921,0,0,0-.58.469,2.6,2.6,0,0,0-.389.634,3.282,3.282,0,0,0-.213.676l-2.547-.608a6.5,6.5,0,0,1,.464-1.4,3.969,3.969,0,0,1,2.174-2.057,4.937,4.937,0,0,1,1.87-.32,4.688,4.688,0,0,1,1.828.325,3.789,3.789,0,0,1,1.274.842,3.283,3.283,0,0,1,.74,1.178,3.869,3.869,0,0,1,.24,1.332,3.272,3.272,0,0,1-.24,1.289,3.536,3.536,0,0,1-.633,1,5.127,5.127,0,0,1-.9.783,10.5,10.5,0,0,1-1.029.628q-.527.282-1.029.538a9.215,9.215,0,0,0-.895.517,2.752,2.752,0,0,0-.635.559,1.044,1.044,0,0,0-.24.671,1.193,1.193,0,0,0,.5,1.05,2.36,2.36,0,0,0,1.37.347,2.674,2.674,0,0,0,1.316-.309,3.458,3.458,0,0,0,.96-.772,4.391,4.391,0,0,0,.655-1.012,8.343,8.343,0,0,0,.405-1.029h1.13a9.963,9.963,0,0,0,.389,1.029,4.242,4.242,0,0,0,.623,1.012,3.294,3.294,0,0,0,.932.772,2.615,2.615,0,0,0,1.305.309,2.531,2.531,0,0,0,1-.191,2.019,2.019,0,0,0,.773-.576,2.716,2.716,0,0,0,.495-.964,4.7,4.7,0,0,0,.177-1.359,5.139,5.139,0,0,0-.405-2.056,5.835,5.835,0,0,0-1.06-1.652,6.081,6.081,0,0,0-1.481-1.183,6.159,6.159,0,0,0-1.657-.661l.394-2.419a10.92,10.92,0,0,1,1.61.485,9.776,9.776,0,0,1,1.6.789,8.96,8.96,0,0,1,1.471,1.124,7.113,7.113,0,0,1,1.21,1.5,7.611,7.611,0,0,1,.815,1.9,8.57,8.57,0,0,1,.3,2.334,7.217,7.217,0,0,1-.415,2.606,4.6,4.6,0,0,1-1.125,1.731,4.285,4.285,0,0,1-1.662.959,6.749,6.749,0,0,1-2.03.3Zm-5.381,3.838-.213-.245,1.236-4.262h1.13l1.193,4.263-.213.246Zm4.348-15.176h-1.13l-4.252-4.209v-.149l1.823-1.78,2.995,3.7,5.051-5.977,1.939,1.9v.149Zm19.364,16.348a31.435,31.435,0,0,1-3.379-.16,15.9,15.9,0,0,1-2.542-.464,7.757,7.757,0,0,1-1.833-.746,5.085,5.085,0,0,1-1.253-1.012,4.687,4.687,0,0,1-.793-1.257,8.14,8.14,0,0,1-.464-1.476q-.118-.543-.176-1.039t-.08-1.135q-.021-.639-.016-1.513t.006-2.163v-8.514l2.237.021v8.451q0,.841.021,1.7t.079,1.646q.059.783.144,1.428a5.776,5.776,0,0,0,.213,1.028,2.882,2.882,0,0,0,1.008,1.36,6.072,6.072,0,0,0,1.773.911,11.915,11.915,0,0,0,2.339.512,22.075,22.075,0,0,0,2.7.16Zm4.583-10.8h1.129a8.24,8.24,0,0,0,.405,1.028,4.373,4.373,0,0,0,.654,1.013,3.47,3.47,0,0,0,.96.773,2.681,2.681,0,0,0,1.316.309,2.3,2.3,0,0,0,1.066-.24,2.388,2.388,0,0,0,.788-.64,2.887,2.887,0,0,0,.491-.932,3.649,3.649,0,0,0,.17-1.118,5.233,5.233,0,0,0-.538-2.4,5.533,5.533,0,0,0-1.434-1.8,6.414,6.414,0,0,0-2.051-1.124,7.529,7.529,0,0,0-4.007-.213,7.2,7.2,0,0,0-1.508.511,6.236,6.236,0,0,0-1.316.831,5.612,5.612,0,0,0-1.044,1.13,5.186,5.186,0,0,0-.688,1.4,5.432,5.432,0,0,0-.245,1.662,3.626,3.626,0,0,0,.17,1.114,2.961,2.961,0,0,0,.491.932,2.361,2.361,0,0,0,.789.645,2.308,2.308,0,0,0,1.066.24,2.684,2.684,0,0,0,1.314-.31,3.47,3.47,0,0,0,.959-.773,4.377,4.377,0,0,0,.655-1.012,8.337,8.337,0,0,0,.405-1.028Zm.565,3.645a3.756,3.756,0,0,1-.635.778,5,5,0,0,1-.911.687,5.164,5.164,0,0,1-1.114.491,4.173,4.173,0,0,1-1.241.187,6.4,6.4,0,0,1-2.078-.332,4.472,4.472,0,0,1-1.684-1.018,4.8,4.8,0,0,1-1.124-1.731,6.783,6.783,0,0,1-.409-2.483,8.107,8.107,0,0,1,.325-2.329,7.5,7.5,0,0,1,.922-2,7.662,7.662,0,0,1,1.434-1.62,8.563,8.563,0,0,1,1.855-1.2,10.018,10.018,0,0,1,2.2-.751,11.723,11.723,0,0,1,4.923,0,10.012,10.012,0,0,1,2.2.751,8.567,8.567,0,0,1,1.855,1.2,7.647,7.647,0,0,1,1.433,1.62,7.522,7.522,0,0,1,.922,1.992,8.114,8.114,0,0,1,.325,2.334,6.785,6.785,0,0,1-.409,2.483,4.8,4.8,0,0,1-1.124,1.731,4.471,4.471,0,0,1-1.684,1.018,6.389,6.389,0,0,1-2.078.33,4.156,4.156,0,0,1-1.241-.187,5.134,5.134,0,0,1-1.113-.491,4.975,4.975,0,0,1-.912-.687,3.758,3.758,0,0,1-.637-.776Zm1.746-10.658h-3.5l-3.069-3.037v-.15l1.823-1.779,2.995,3.7,5.052-5.978,1.94,1.9v.149Zm22.688,5.009a.93.93,0,0,0,.074.368,1.042,1.042,0,0,0,.208.315,1,1,0,0,0,.309.218.952.952,0,0,0,1.1-.251,1.255,1.255,0,0,0,.3-.873,1.576,1.576,0,0,0-.016-.224c-.011-.071-.023-.146-.037-.224a1.919,1.919,0,0,0-.437-.2,1.556,1.556,0,0,0-.491-.085,1.065,1.065,0,0,0-.709.256.872.872,0,0,0-.3.7Zm-3.133,7.792a18.206,18.206,0,0,1-3.958-.394,9.9,9.9,0,0,1-3.005-1.151,5.585,5.585,0,0,1-1.913-1.86,4.771,4.771,0,0,1-.672-2.531,5.068,5.068,0,0,1,.405-2,5.6,5.6,0,0,1,1.1-1.684,5.244,5.244,0,0,1,1.63-1.161,4.757,4.757,0,0,1,2.015-.432,4.265,4.265,0,0,1,1.236.165,3.613,3.613,0,0,1,.959.442,3.151,3.151,0,0,1,.71.64,3.748,3.748,0,0,1,.474.746,3.64,3.64,0,0,1,.266.767,3.311,3.311,0,0,1,.086.714,3.428,3.428,0,0,1-.246,1.284,3.317,3.317,0,0,1-.7,1.082,3.362,3.362,0,0,1-1.087.746,3.492,3.492,0,0,1-1.412.277,3.015,3.015,0,0,1-1.247-.24,3.167,3.167,0,0,1-.9-.591,3.326,3.326,0,0,1-.592-.741,3.631,3.631,0,0,1-.319-.687h-.064a3.088,3.088,0,0,0,.511,1.791,3.811,3.811,0,0,0,1.455,1.225,7.912,7.912,0,0,0,2.281.7,20.07,20.07,0,0,0,5.978,0,7.916,7.916,0,0,0,2.28-.7,3.81,3.81,0,0,0,1.454-1.225,3.087,3.087,0,0,0,.512-1.791h-.064a3.667,3.667,0,0,1-.32.688,3.307,3.307,0,0,1-.592.741,3.17,3.17,0,0,1-.9.592,3.012,3.012,0,0,1-1.247.24,3.483,3.483,0,0,1-1.5-.3,3.271,3.271,0,0,1-1.726-1.88,3.553,3.553,0,0,1-.218-1.2,3.008,3.008,0,0,1,.155-.9,3.347,3.347,0,0,1,.479-.943,3.54,3.54,0,0,1,.837-.815,3.112,3.112,0,0,1,1.215-.5,3.114,3.114,0,0,0-.6-.224,5.053,5.053,0,0,0-.634-.128c-.209-.029-.408-.047-.6-.055s-.35-.011-.484-.01v-2.419a8.264,8.264,0,0,1,3.192.949,7.985,7.985,0,0,1,2.414,2.11,4.828,4.828,0,0,1,1.279.927,5.611,5.611,0,0,1,.9,1.193,5.749,5.749,0,0,1,.538,1.316,5,5,0,0,1,.181,1.295,4.857,4.857,0,0,1-.6,2.377,5.4,5.4,0,0,1-1.785,1.881,9.393,9.393,0,0,1-2.98,1.236A17.567,17.567,0,0,1,1071.63,283.088Zm-3.133-7.79a.872.872,0,0,0-.3-.7,1.064,1.064,0,0,0-.709-.255,1.553,1.553,0,0,0-.491.085,1.9,1.9,0,0,0-.436.2c-.014.078-.026.152-.037.224a1.475,1.475,0,0,0-.016.224,1.257,1.257,0,0,0,.3.873.945.945,0,0,0,1.1.25.978.978,0,0,0,.314-.218,1.029,1.029,0,0,0,.208-.315A.937.937,0,0,0,1068.5,275.3Zm4.273-3.549h-1.13l-4.252-4.209v-.149l1.823-1.78,2.995,3.7,5.051-5.977,1.94,1.9v.149Z" transform="translate(-863.26 -210.668)" fill="#257d34"/>
      <path id="Path_3380" data-name="Path 3380" d="M844.158,128.2a14.4,14.4,0,1,0-17.315,20.849,10.834,10.834,0,0,1,1.3-1.065,5.314,5.314,0,0,0,.526-1.75c-.167.018-2.552.785-3.609-.472a1.587,1.587,0,0,1-2.1-.681,4.349,4.349,0,0,1-.789-1.751,1.176,1.176,0,0,1-.058-.524,1.5,1.5,0,0,0-.063-.811,1.827,1.827,0,0,1-.2-1.788c.172-.476-.037-.18,1.367-1.718-.884-.113-1.185-.6-1.031-1.3-.223-.095-.484-.209-.567-.457-.071-.347.219-.616.463-.811-.7-.44-.616-1-.072-1.483.037-.043.11-.077.094-.144-.074-.613.223-.919.811-1.065-.031-.64.409-.774,1.044-.806a.655.655,0,0,1,.5-.381c.274-.018.471.2.658.363,1.9-4.357,6.793-4.161,6.938-4.205,1.807-.668,3.934-.7,5.334.538a4.044,4.044,0,0,1,.735.489,2.393,2.393,0,0,1,.207,3.207,4.94,4.94,0,0,1,.717,1.281,5.5,5.5,0,0,1,.562,3.248c.387-.018.445-.153.716-.453a2.044,2.044,0,0,1-.551,1,10.407,10.407,0,0,0,.918,1.082,5.245,5.245,0,0,0,.516.418c.072.059.012.155-.018.221-.325.554-.86.647-.732,1.024a1.668,1.668,0,0,0,.248.443c.121.262-.175.21-.367.58.1.1.2.222.159.372-.027.19-.187.3-.316.426-.435.473-.2.939-.2,1.187a1.214,1.214,0,0,1-1.392,1.264c-2.813-.184-2.466.063-2.774.49a19.422,19.422,0,0,1-1.159,1.692,3.443,3.443,0,0,0-.64,2.865c.007.05.021.1.032.148A14.377,14.377,0,0,0,844.158,128.2Z" transform="translate(-787.896 -90.938)" fill="#0055a4"/>
      <path id="Path_3381" data-name="Path 3381" d="M776.664,98.564s-3.243,2.2-8.486-3.542c0,0-2.424-2.781-4.619-9.164l-.741-1.957s-.356-1.111,1.25-1.109a78.267,78.267,0,0,1,9.49,2.454s7,2.847,7.168,8.239c0,0-1.087,1.8-1.948.406a8.376,8.376,0,0,0-4.668-5.957s-5.311-2.358-7.985-2.062c0,0-.171,1.67,3.7,7.81,0,0,2.711,3.478,5.884,3.259C775.707,96.94,777.394,97.142,776.664,98.564Z" transform="translate(-748.556 -63.312)" fill="#0055a4"/>
    </g>
  </g>
</svg>
