<svg xmlns="http://www.w3.org/2000/svg" xmlns:xlink="http://www.w3.org/1999/xlink" width="60" height="60" viewBox="0 0 60 60">
  <defs>
    <clipPath id="clip-ab-sharelocation">
      <rect width="60" height="60"/>
    </clipPath>
  </defs>
  <g id="ab-sharelocation" clip-path="url(#clip-ab-sharelocation)">
    <path id="Subtraction_9" data-name="Subtraction 9" d="M4415.173-6643.8a.766.766,0,0,1-.558-.242l-14.486-15.429a22.469,22.469,0,0,1-4.826-7.659,20.748,20.748,0,0,1-1.261-8.592,22.149,22.149,0,0,1,6.395-14.163,20.708,20.708,0,0,1,6.758-4.527,20.709,20.709,0,0,1,7.978-1.59,20.71,20.71,0,0,1,7.979,1.59,20.712,20.712,0,0,1,6.759,4.527,22.153,22.153,0,0,1,6.394,14.163,20.747,20.747,0,0,1-1.262,8.592,22.475,22.475,0,0,1-4.825,7.659l-14.487,15.429A.767.767,0,0,1,4415.173-6643.8Zm0-50.671a19.411,19.411,0,0,0-13.652,5.668,20.605,20.605,0,0,0-5.951,13.184,19.211,19.211,0,0,0,1.171,7.965,20.952,20.952,0,0,0,4.5,7.135l13.928,14.835,13.928-14.835a20.968,20.968,0,0,0,4.505-7.135,19.247,19.247,0,0,0,1.171-7.965,20.611,20.611,0,0,0-5.952-13.184A19.407,19.407,0,0,0,4415.173-6694.469Zm0,36.187a16.3,16.3,0,0,1-16.072-16.484,16.3,16.3,0,0,1,16.072-16.483,16.3,16.3,0,0,1,16.074,16.483A16.3,16.3,0,0,1,4415.173-6658.282Zm-3.02-15h0l5.126,2.353a3.118,3.118,0,0,0,2.028,3.586,3.115,3.115,0,0,0,1.017.171,3.092,3.092,0,0,0,2.793-1.739,3.116,3.116,0,0,0-1.082-3.975,3.1,3.1,0,0,0-1.709-.512,3.109,3.109,0,0,0-2.37,1.093l-4.978-2.282a3.089,3.089,0,0,0,.076-1.625l5.036-2.417a3.079,3.079,0,0,0,2.226.941,3.073,3.073,0,0,0,1.863-.623,3.107,3.107,0,0,0,.825-4.018,3.112,3.112,0,0,0-2.692-1.559,3.078,3.078,0,0,0-1.193.24,3.1,3.1,0,0,0-1.792,3.688l-4.964,2.381a3.105,3.105,0,0,0-2.342-1.065,3.113,3.113,0,0,0-1.425.348,3.1,3.1,0,0,0-1.588,3.492,3.1,3.1,0,0,0,3.017,2.368,3.082,3.082,0,0,0,2.127-.846Zm8.167,4.563a1.576,1.576,0,0,1-1.573-1.575,1.575,1.575,0,0,1,1.573-1.573,1.577,1.577,0,0,1,1.575,1.575A1.576,1.576,0,0,1,4420.32-6668.721Zm-10.294-5.247a1.577,1.577,0,0,1-1.575-1.575,1.576,1.576,0,0,1,1.575-1.573,1.575,1.575,0,0,1,1.573,1.573A1.576,1.576,0,0,1,4410.026-6673.968Zm10.294-5.247a1.575,1.575,0,0,1-1.573-1.573,1.578,1.578,0,0,1,1.573-1.575,1.577,1.577,0,0,1,1.575,1.575A1.576,1.576,0,0,1,4420.32-6679.214Z" transform="translate(-4385 6700)" fill="#fff"/>
  </g>
</svg>
