<svg id="Layer_1" data-name="Layer 1" xmlns="http://www.w3.org/2000/svg" viewBox="0 0 60 60"><defs><style>.cls-1{fill:none;}.cls-2{fill:#18bfff;}</style></defs><title>ab-searchfilter</title><rect class="cls-1" width="60" height="60"/><path class="cls-2" d="M34.1,25a14.8,14.8,0,1,0-14.8,14.8A14.8,14.8,0,0,0,34.1,25ZM19.3,36.13h0A11.1,11.1,0,1,1,30.4,25,11.1,11.1,0,0,1,19.3,36.13Z"/><path class="cls-2" d="M42.88,43.38h0l-9.05-9.05a17.62,17.62,0,0,1-5.23,5.23l9,9a3.7,3.7,0,0,0,5.4-5.07Z"/><rect class="cls-2" x="37.5" y="15.23" width="18" height="1.5"/><rect class="cls-2" x="37.5" y="23.23" width="12" height="1.5"/><rect class="cls-2" x="37.5" y="31.23" width="6" height="1.5"/></svg>