<svg xmlns="http://www.w3.org/2000/svg" xmlns:xlink="http://www.w3.org/1999/xlink" width="150" height="60" viewBox="0 0 150 60">
  <defs>
    <clipPath id="clip-otsi-logo">
      <rect width="150" height="60"/>
    </clipPath>
  </defs>
  <g id="otsi-logo" clip-path="url(#clip-otsi-logo)">
    <g id="Group_170" data-name="Group 170" transform="translate(-136.593 -16.564)">
      <g id="Group_62" data-name="Group 62" transform="translate(139.593 18.964)">
        <path id="Path_93" data-name="Path 93" d="M294.141,27.973h-8.485l2.683-3.723h8.494Z" transform="translate(-161.549 -10.443)" fill="#22a3dc" fill-rule="evenodd"/>
        <path id="Path_92" data-name="Path 92" d="M217.062,38.24q0,7.7,4,7.7a3.229,3.229,0,0,0,3.1-1.866q.924-1.884.924-6.86,0-7.2-3.865-7.2Q217.063,30.021,217.062,38.24Zm-5.606-10.449q3.491-4.044,9.729-4.043a12.464,12.464,0,0,1,9.409,3.794,11.9,11.9,0,0,1,1.786,2.426V24.175h19.485V27.96a9.532,9.532,0,0,1,1.484-1.626q2.949-2.586,8.521-2.586,8.432,0,11.151,6.78l-7.029,2.123a4.279,4.279,0,0,0-4.424-2.781q-2.772,0-2.772,1.715a1.359,1.359,0,0,0,.622,1.2,7.794,7.794,0,0,0,2.426.817,50.733,50.733,0,0,1,7.037,1.857,7.412,7.412,0,0,1,3.483,2.755,7.745,7.745,0,0,1,1.4,4.621,8.105,8.105,0,0,1-3.394,6.761,14.217,14.217,0,0,1-8.921,2.621q-10.1,0-12.466-8.423l7.872-1.422q1,3.341,5.1,3.341,3.2,0,3.2-1.7a1.56,1.56,0,0,0-.738-1.378,7.639,7.639,0,0,0-2.648-.879q-7.269-1.4-9.33-3.643a7.6,7.6,0,0,1-2.061-5.3,8.707,8.707,0,0,1,.231-2.034h-4.469v21H238.1v-21h-5.3a16,16,0,0,1,1.4,6.913q0,6.583-3.652,10.546a12.3,12.3,0,0,1-9.463,3.971,12.449,12.449,0,0,1-9.481-3.865q-3.687-3.873-3.688-10.342A14.934,14.934,0,0,1,211.456,27.791Zm62.516,2.656h8.485V51.789h-8.485Z" transform="translate(-149.865 -10.367)" fill="#2a5071" fill-rule="evenodd"/>
        <path id="Path_94" data-name="Path 94" d="M165.721,53.627l-11.4-6.545,11.4-6.583Z" transform="translate(-141.807 -12.885)" fill="#2a5071" fill-rule="evenodd"/>
        <path id="Path_95" data-name="Path 95" d="M167.738,53.627l11.4-6.545-11.4-6.583Z" transform="translate(-143.824 -12.885)" fill="#336ea3" fill-rule="evenodd"/>
        <path id="Path_96" data-name="Path 96" d="M165.721,25.049l-11.4,6.545,11.4,6.583Z" transform="translate(-141.807 -10.563)" fill="#91d8f7" fill-rule="evenodd"/>
        <path id="Path_97" data-name="Path 97" d="M167.738,25.049l11.4,6.545-11.4,6.583Z" transform="translate(-143.824 -10.563)" fill="#6bbce9" fill-rule="evenodd"/>
        <path id="Path_98" data-name="Path 98" d="M167.738,39.336l11.4,6.581V32.752Z" transform="translate(-143.824 -11.721)" fill="#22a3dc" fill-rule="evenodd"/>
        <path id="Path_99" data-name="Path 99" d="M191.652,21.807,167.738,8V19.825l13.673,7.894Z" transform="translate(-143.824 -8)" fill="#6bbce9" fill-rule="evenodd"/>
        <path id="Path_100" data-name="Path 100" d="M191.654,55.7,167.74,69.511V57.686l13.673-7.894Z" transform="translate(-143.824 -14.282)" fill="#336ea3" fill-rule="evenodd"/>
        <path id="Path_101" data-name="Path 101" d="M139.593,21.807,163.508,8V19.825l-13.674,7.894Z" transform="translate(-139.593 -8)" fill="#91d8f7" fill-rule="evenodd"/>
        <path id="Path_102" data-name="Path 102" d="M139.6,55.7,163.51,69.511V57.686l-13.673-7.894Z" transform="translate(-139.594 -14.282)" fill="#2a5071" fill-rule="evenodd"/>
        <path id="Path_103" data-name="Path 103" d="M194.071,24.25l0,27.615-10.241-5.913,0-15.791Z" transform="translate(-146.243 -10.443)" fill="#22a3dc" fill-rule="evenodd"/>
        <path id="Path_104" data-name="Path 104" d="M139.593,27.215,159.153,38.5h0l-.01,0,.01,0h0l-19.56,11.284,0-11.288Z" transform="translate(-139.593 -10.888)" fill="#81c34d" fill-rule="evenodd"/>
      </g>
      <path id="Path_105" data-name="Path 105" d="M300.3,56.929v-4.01h-1.5v-.532h3.6v.532h-1.5v4.01Zm2.708,0V52.387h.9l1.075,3.216q.148.448.217.673.078-.248.243-.729l1.093-3.159h.805v4.542h-.577v-3.8l-1.327,3.8h-.542l-1.311-3.87v3.87Z" transform="translate(-23.615 3.465)" fill="#373435"/>
    </g>
  </g>
</svg>
