<svg xmlns="http://www.w3.org/2000/svg" xmlns:xlink="http://www.w3.org/1999/xlink" viewBox="0 0 40 40">
  <defs>
    <style>
      .cls-1 {
        clip-path: url(#clip-ic_auto-yellow2);
      }

      .cls-2 {
        fill: #303e48;
      }

      .cls-3 {
        fill: #e6e6e6;
      }

      .cls-4 {
        fill: #d8b10f;
      }

      .cls-5 {
        fill: #d1d1d1;
      }

      .cls-6 {
        fill: #f8d732;
      }

      .cls-7 {
        fill: #fff;
      }

      .cls-8 {
        fill: #fa6657;
      }

      .cls-9 {
        filter: url(#Path_11);
      }

      .cls-10 {
        filter: url(#Ellipse_4);
      }

      .cls-11 {
        filter: url(#Ellipse_1);
      }
    </style>
    <filter id="Ellipse_1" x="20.759" y="21.103" width="23.809" height="23.809" filterUnits="userSpaceOnUse">
      <feOffset dy="3" input="SourceAlpha"/>
      <feGaussianBlur stdDeviation="3" result="blur"/>
      <feFlood flood-opacity="0.161"/>
      <feComposite operator="in" in2="blur"/>
      <feComposite in="SourceGraphic"/>
    </filter>
    <filter id="Ellipse_4" x="-6.074" y="21.015" width="23.999" height="23.999" filterUnits="userSpaceOnUse">
      <feOffset dy="3" input="SourceAlpha"/>
      <feGaussianBlur stdDeviation="3" result="blur-2"/>
      <feFlood flood-opacity="0.161"/>
      <feComposite operator="in" in2="blur-2"/>
      <feComposite in="SourceGraphic"/>
    </filter>
    <filter id="Path_11" x="-7.009" y="10.524" width="48.63" height="30.529" filterUnits="userSpaceOnUse">
      <feOffset dy="3" input="SourceAlpha"/>
      <feGaussianBlur stdDeviation="3" result="blur-3"/>
      <feFlood flood-opacity="0.161"/>
      <feComposite operator="in" in2="blur-3"/>
      <feComposite in="SourceGraphic"/>
    </filter>
    <clipPath id="clip-ic_auto-yellow2">
      <rect width="40" height="40"/>
    </clipPath>
  </defs>
  <g id="ic_auto-yellow2" class="cls-1">
    <g id="Symbol_3_1" data-name="Symbol 3 – 1" transform="translate(0.03 -0.5)">
      <path id="Path_1" data-name="Path 1" class="cls-2" d="M69.963,123.593H65.4V121.1h4.563a1.247,1.247,0,0,1,1.246,1.246h0A1.24,1.24,0,0,1,69.963,123.593Z" transform="translate(-57.359 -101.485)"/>
      <g class="cls-11" transform="matrix(1, 0, 0, 1, -0.03, 0.5)">
        <circle id="Ellipse_1-2" data-name="Ellipse 1" class="cls-2" cx="2.905" cy="2.905" r="2.905" transform="translate(29.76 27.1)"/>
      </g>
      <circle id="Ellipse_2" data-name="Ellipse 2" class="cls-3" cx="1.778" cy="1.778" r="1.778" transform="translate(30.857 28.73)"/>
      <path id="Path_2" data-name="Path 2" class="cls-4" d="M269.683,166.743a6.126,6.126,0,0,1,.639-.043,4.98,4.98,0,0,1,4.888,4.021.813.813,0,0,1-.791.965H267.7" transform="translate(-237.732 -142.143)"/>
      <g class="cls-10" transform="matrix(1, 0, 0, 1, -0.03, 0.5)">
        <circle id="Ellipse_4-2" data-name="Ellipse 4" class="cls-2" cx="2.905" cy="2.905" r="2.905" transform="translate(2.93 32.82) rotate(-88.09)"/>
      </g>
      <circle id="Ellipse_5" data-name="Ellipse 5" class="cls-3" cx="1.778" cy="1.778" r="1.778" transform="translate(4.118 28.73)"/>
      <circle id="Ellipse_6" data-name="Ellipse 6" class="cls-5" cx="0.607" cy="0.607" r="0.607" transform="translate(5.288 29.901)"/>
      <rect id="Rectangle_1" data-name="Rectangle 1" class="cls-4" width="4.563" height="6.471" transform="translate(18.923 21.587)"/>
      <rect id="Rectangle_2" data-name="Rectangle 2" class="cls-6" width="4.563" height="1.561" transform="translate(18.923 21.587)"/>
      <path id="Path_3" data-name="Path 3" class="cls-2" d="M164.493,121.693H160.1V119.2h4.393a1.224,1.224,0,0,1,1.2,1.246h0A1.224,1.224,0,0,1,164.493,121.693Z" transform="translate(-141.578 -99.791)"/>
      <rect id="Rectangle_3" data-name="Rectangle 3" class="cls-6" width="0.618" height="18.339" transform="translate(18.305 8.982)"/>
      <path id="Path_8" data-name="Path 8" class="cls-2" d="M37.838,2.582A2.489,2.489,0,0,0,40.266.652.461.461,0,0,0,39.811.1H14.882A5.588,5.588,0,0,0,9.3,5.682v7.013a2.928,2.928,0,0,0,5.051,2.016l2.081-2.2V5.085a2.5,2.5,0,0,1,2.5-2.5H33.687v8.053L36.8,11.3l2.991-.661a20.567,20.567,0,0,0-2.666-8.053Z" transform="translate(-7.339 6.4)"/>
      <path id="Path_9" data-name="Path 9" class="cls-2" d="M237.736,23H234.3v2.244h4.541A15.434,15.434,0,0,0,237.736,23Z" transform="translate(-207.952 -14.018)"/>
      <path id="Path_10" data-name="Path 10" class="cls-7" d="M248.1,40.815a14.905,14.905,0,0,0-1.582-4.466.458.458,0,0,0-.4-.249h-1.16a.458.458,0,0,0-.455.455v4.335a.458.458,0,0,0,.455.455h2.7A.458.458,0,0,0,248.1,40.815Z" transform="translate(-217.047 -25.698)"/>
      <g class="cls-9" transform="matrix(1, 0, 0, 1, -0.03, 0.5)">
        <path id="Path_11-2" data-name="Path 11" class="cls-6" d="M33.687,97.2v10.286H20.746V102.4a3.329,3.329,0,0,0-3.36-3.295H9.3v10.622H37.307A20.317,20.317,0,0,0,39.93,99.617a19.7,19.7,0,0,0-.141-2.417Z" transform="translate(-7.31 -80.68)"/>
      </g>
      <path id="Path_12" data-name="Path 12" class="cls-4" d="M270.5,166.8h-.173a4.227,4.227,0,0,0-.639.043L267.7,171.8h.986A20.58,20.58,0,0,0,270.5,166.8Z" transform="translate(-237.732 -142.232)"/>
      <g id="Group_3" data-name="Group 3" transform="translate(1.961 17.024)">
        <g id="Group_2" data-name="Group 2">
          <path id="Path_13" data-name="Path 13" class="cls-4" d="M240.532,99.108a17.978,17.978,0,0,0-.13-1.908h-6.1v1.908Z" transform="translate(-209.913 -97.2)"/>
          <path id="Path_14" data-name="Path 14" class="cls-4" d="M20.431,116.708a3.388,3.388,0,0,0-3.046-1.908H9.3v1.908Z" transform="translate(-9.3 -112.892)"/>
        </g>
      </g>
      <path id="Path_15" data-name="Path 15" class="cls-8" d="M249.255,112.336h-.737a.618.618,0,0,1,0-1.236h.737a.618.618,0,0,1,0,1.236Z" transform="translate(-220.078 -92.569)"/>
      <path id="Path_16" data-name="Path 16" class="cls-4" d="M.518,171.7a.556.556,0,0,1-.542-.618,4.977,4.977,0,0,1,9.917.618Z" transform="translate(0.976 -142.143)"/>
      <circle id="Ellipse_3" data-name="Ellipse 3" class="cls-5" cx="0.607" cy="0.607" r="0.607" transform="translate(32.027 29.901)"/>
      <path id="Path_4" data-name="Path 4" class="cls-2" d="M290.682,141.965H291.7a.8.8,0,0,0,.8-.8V139.6a.8.8,0,0,0-.8-.8h-1.019a1.577,1.577,0,0,0-1.582,1.582h0A1.591,1.591,0,0,0,290.682,141.965Z" transform="translate(-256.813 -117.267)"/>
      <g id="Group_1" data-name="Group 1" transform="translate(36.982 20.089)">
        <path id="Path_5" data-name="Path 5" class="cls-8" d="M334.893,147.936h-.975a.618.618,0,0,1,0-1.236h.975a.618.618,0,1,1,0,1.236Z" transform="translate(-333.204 -144.399)"/>
        <path id="Path_6" data-name="Path 6" class="cls-8" d="M333.092,127.089a.624.624,0,0,1-.228-1.2l.91-.369a.625.625,0,1,1,.466,1.16l-.91.369A1.012,1.012,0,0,1,333.092,127.089Z" transform="translate(-332.465 -125.471)"/>
        <path id="Path_7" data-name="Path 7" class="cls-8" d="M333.939,165.148a.52.52,0,0,1-.249-.054l-.9-.39a.619.619,0,1,1,.488-1.138l.9.39a.612.612,0,0,1,.325.813A.587.587,0,0,1,333.939,165.148Z" transform="translate(-332.412 -159.389)"/>
      </g>
    </g>
  </g>
</svg>
