<svg id="Layer_1" data-name="Layer 1" xmlns="http://www.w3.org/2000/svg" viewBox="0 0 60 60"><defs><style>.cls-1{fill:none;}.cls-2{opacity:0.2;isolation:isolate;}.cls-3{fill:#ffb04c;}.cls-4{fill:#fa6657;}.cls-5{fill:#fff;}</style></defs><title>ab-alertsquickview</title><rect class="cls-1" width="60" height="60"/><g id="Group_1142" data-name="Group 1142"><ellipse id="Ellipse_19" data-name="Ellipse 19" class="cls-2" cx="30.49" cy="56.86" rx="23.82" ry="0.79"/><path id="Path_3206" data-name="Path 3206" class="cls-3" d="M45.73,53.75H14.27L18,46.16l24,0Z"/><path id="Path_3207" data-name="Path 3207" class="cls-4" d="M42,46.17H18V30.28a12,12,0,0,1,12-12h0a12,12,0,0,1,12,12Z"/><g id="Group_1094" data-name="Group 1094"><path id="Path_3208" data-name="Path 3208" class="cls-5" d="M30,33.77h0A2.05,2.05,0,0,1,28,31.72h0V26.8A2.05,2.05,0,0,1,30,24.75h0a2.05,2.05,0,0,1,2,2.05v4.92A2.05,2.05,0,0,1,30,33.77Z"/><path id="Path_3209" data-name="Path 3209" class="cls-5" d="M30,42h0a2,2,0,0,1-2.05-2h0a2.05,2.05,0,0,1,2-2.06h0a2.05,2.05,0,0,1,2,2h0A2.05,2.05,0,0,1,30,42Z"/></g><g id="Group_1095" data-name="Group 1095"><path id="Path_3211" data-name="Path 3211" class="cls-4" d="M30,10.51a1,1,0,0,0,1-1V3.34a1,1,0,0,0-2.05,0V9.49a1,1,0,0,0,1,1Z"/><path id="Path_3212" data-name="Path 3212" class="cls-4" d="M30,14.5a1,1,0,1,0-.72-.3A1,1,0,0,0,30,14.5Z"/><path id="Path_3213" data-name="Path 3213" class="cls-4" d="M14.58,30.76a1,1,0,0,0-1-1H8.86a1,1,0,0,0-1,1.05,1,1,0,0,0,1,1h4.7A1,1,0,0,0,14.58,30.76Z"/><path id="Path_3214" data-name="Path 3214" class="cls-4" d="M4.8,29.74a1,1,0,1,0,.72.3A1,1,0,0,0,4.8,29.74Z"/><path id="Path_3215" data-name="Path 3215" class="cls-4" d="M21.21,12.22a1,1,0,0,0,1.92-.73l0-.06L21.71,8.08a1,1,0,1,0-1.92.72l0,.06Z"/><path id="Path_3216" data-name="Path 3216" class="cls-4" d="M11.06,23.94a1,1,0,0,0,.39-2L8.1,20.58a1,1,0,0,0-.84,1.87l.06,0,3.35,1.38A.88.88,0,0,0,11.06,23.94Z"/><path id="Path_3217" data-name="Path 3217" class="cls-4" d="M51.58,29.74h-4.7a1,1,0,1,0-.07,2.05h4.77a1,1,0,0,0,0-2.05Z"/><path id="Path_3218" data-name="Path 3218" class="cls-4" d="M55.93,30a1,1,0,1,0,0,1.45,1.06,1.06,0,0,0,.3-.73A1,1,0,0,0,55.93,30Z"/><path id="Path_3219" data-name="Path 3219" class="cls-4" d="M44.5,17.29a1,1,0,0,0,.72-.3l5-5a1,1,0,0,0-1.45-1.45l-5,5a1,1,0,0,0,0,1.45A1.06,1.06,0,0,0,44.5,17.29Z"/><path id="Path_3220" data-name="Path 3220" class="cls-4" d="M14.78,17a1,1,0,0,0,1.49-1.41s0,0,0,0l-5-5A1,1,0,0,0,9.7,11.91l0,0Z"/><path id="Path_3221" data-name="Path 3221" class="cls-4" d="M37.46,12.77a1,1,0,0,0,1.34-.55h0l1.39-3.36a1,1,0,0,0-.52-1.35A1,1,0,0,0,38.32,8l0,.06L36.9,11.43A1,1,0,0,0,37.46,12.77Z"/><path id="Path_3222" data-name="Path 3222" class="cls-4" d="M51.9,20.58,48.55,22a1,1,0,0,0,.72,1.92l.06,0,3.35-1.38a1,1,0,0,0-.78-1.9Z"/></g></g></svg>