<svg id="Layer_1" data-name="Layer 1" xmlns="http://www.w3.org/2000/svg" viewBox="0 0 60 60"><defs><style>.cls-1{fill:none;}.cls-2{fill:#303e48;}.cls-3{fill:#e6e6e6;}.cls-4{fill:#d1d1d1;}.cls-5{fill:#ffb04c;}.cls-12,.cls-6{fill:#fa6657;}.cls-7{fill:#f44a46;}.cls-8{fill:#162630;}.cls-9{fill:#ffdb6c;}.cls-10{fill:#e89b46;}.cls-11{opacity:0.2;isolation:isolate;}.cls-12{stroke:#fff;stroke-miterlimit:10;}.cls-13{fill:#fff;}</style></defs><title>ab-devicestatus</title><rect class="cls-1" width="60" height="60"/><g id="Group_1138" data-name="Group 1138"><g id="ic_stoppageVehc" data-name="ic stoppageVehc"><circle id="Ellipse_23" data-name="Ellipse 23" class="cls-2" cx="50.6" cy="51.1" r="4.47"/><circle id="Ellipse_24" data-name="Ellipse 24" class="cls-3" cx="50.6" cy="51.1" r="2.73"/><circle id="Ellipse_25" data-name="Ellipse 25" class="cls-4" cx="50.6" cy="51.1" r="0.94"/><path id="Path_3234" data-name="Path 3234" class="cls-5" d="M49.57,42h1a7.68,7.68,0,0,1,7.51,6.19,1.25,1.25,0,0,1-1,1.46l-.23,0H46.56"/><circle id="Ellipse_26" data-name="Ellipse 26" class="cls-2" cx="9.51" cy="51.1" r="4.47"/><circle id="Ellipse_27" data-name="Ellipse 27" class="cls-3" cx="9.51" cy="51.1" r="2.73"/><circle id="Ellipse_28" data-name="Ellipse 28" class="cls-4" cx="9.51" cy="51.1" r="0.94"/><rect id="Rectangle_356" data-name="Rectangle 356" class="cls-6" x="29.54" y="37.38" width="7.02" height="9.94"/><rect id="Rectangle_357" data-name="Rectangle 357" class="cls-7" x="29.54" y="37.38" width="7.02" height="2.39"/><path id="Path_3235" data-name="Path 3235" class="cls-2" d="M35.6,37.93h-7V34.05h7A1.92,1.92,0,0,1,37.52,36h0a1.93,1.93,0,0,1-1.87,2Z"/><rect id="Rectangle_358" data-name="Rectangle 358" class="cls-3" x="27.63" y="18" width="1.91" height="28.18"/><path id="Path_3236" data-name="Path 3236" class="cls-5" d="M52.52,42.16h1.56a1.23,1.23,0,0,0,1.23-1.24h0V38.53a1.23,1.23,0,0,0-1.24-1.24H52.52a2.43,2.43,0,0,0-2.43,2.44h0a2.43,2.43,0,0,0,2.43,2.43Z"/><path id="Path_3237" data-name="Path 3237" class="cls-2" d="M47.33,18a3.84,3.84,0,0,0,3.73-2.93.71.71,0,0,0-.52-.84.55.55,0,0,0-.18,0H12.05a8.61,8.61,0,0,0-8.59,8.59V33.59a4.5,4.5,0,0,0,7.76,3.1l3.21-3.43V21.83A3.83,3.83,0,0,1,18.26,18H41V30.37l4.77,1,4.58-1A31.37,31.37,0,0,0,46.21,18Z"/><path id="Path_3238" data-name="Path 3238" class="cls-8" d="M46.24,18H41v3.43h7A25.44,25.44,0,0,0,46.24,18Z"/><path id="Path_3239" data-name="Path 3239" class="cls-3" d="M48.18,27.43a22.68,22.68,0,0,0-2.44-6.86.68.68,0,0,0-.61-.38H43.34a.71.71,0,0,0-.7.7h0v6.65a.7.7,0,0,0,.7.7h4.14a.7.7,0,0,0,.71-.69.57.57,0,0,0,0-.13Z"/><path id="Path_3240" data-name="Path 3240" class="cls-9" d="M41,30.37V46.19H21.06V38.37a5.13,5.13,0,0,0-5.17-5H3.46V49.62H46.51a31.18,31.18,0,0,0,4.06-15.53,33,33,0,0,0-.22-3.72Z"/><path id="Path_3241" data-name="Path 3241" class="cls-10" d="M50.81,42h-.25a8,8,0,0,0-1,0l-3,7.61h1.52A31,31,0,0,0,50.81,42Z"/><path id="Path_3242" data-name="Path 3242" class="cls-5" d="M50.57,33.36a24.22,24.22,0,0,0-.21-2.94H41v2.94Z"/><path id="Path_3243" data-name="Path 3243" class="cls-5" d="M20.58,36.24a5.17,5.17,0,0,0-4.69-2.88H3.46V36.3Z"/><path id="Path_3244" data-name="Path 3244" class="cls-6" d="M45.29,34.58H44.15a1,1,0,0,1-.21-1.91h1.35a1,1,0,1,1,.2,1.91A.67.67,0,0,1,45.29,34.58Z"/><path id="Path_3245" data-name="Path 3245" class="cls-5" d="M2.75,49.62a.83.83,0,0,1-.83-.83.49.49,0,0,1,0-.12,7.64,7.64,0,0,1,15.24.95Z"/><ellipse id="Ellipse_29" data-name="Ellipse 29" class="cls-11" cx="30.32" cy="57.27" rx="24.14" ry="0.8"/><circle id="Ellipse_30" data-name="Ellipse 30" class="cls-12" cx="29.09" cy="14.22" r="12.29"/><path id="Path_3246" data-name="Path 3246" class="cls-13" d="M27.25,10.82a.44.44,0,0,1,.35.18l.84,1.28a12.06,12.06,0,0,1,.69,1.15h0c.23-.41.44-.77.67-1.15L30.63,11a.42.42,0,0,1,.35-.19h1.14l-2.12,3a.39.39,0,0,0,0,.48l2.21,3.27H31.07a.41.41,0,0,1-.35-.19l-.87-1.34c-.27-.39-.49-.77-.73-1.14h0c-.23.41-.47.77-.72,1.14l-.86,1.34a.39.39,0,0,1-.35.19H26l2.29-3.22a.42.42,0,0,0,0-.48l-2.14-3.09Z"/></g></g></svg>