<svg id="Layer_1" data-name="Layer 1" xmlns="http://www.w3.org/2000/svg" viewBox="0 0 60 60"><defs><style>.cls-1{fill:none;}.cls-2{fill:#18bfff;}</style></defs><title>ab-mapview</title><rect class="cls-1" width="60" height="60"/><path id="ic_google_map_blue" data-name="ic google map blue" class="cls-2" d="M28,35.34,49.31,56.71H6.58Zm23.41-7.8v26.7L30,33.29l4.11-4.11-.41-.41a8.55,8.55,0,0,0-1.65-2.47L4.12,54.24V10.69A1.83,1.83,0,0,1,5.35,9.46H30.82a13.65,13.65,0,0,1,25.06,7.4C55.88,21.78,53.42,24.66,51.36,27.54Zm-26.3-7h-7.8v2.88h4.52a4.86,4.86,0,0,1-9.45-1.27v-.38a4.76,4.76,0,0,1,4.56-4.93h.37a5.94,5.94,0,0,1,2.88.83l1.64-2.06A8.66,8.66,0,0,0,17.26,14a7.8,7.8,0,0,0-7.8,7.79h0a8.07,8.07,0,0,0,7.8,7.81,8.08,8.08,0,0,0,7.81-7.8V20.55Zm27.53-3.7a10.27,10.27,0,1,0-20.54-.2v.2c0,8.63,9.86,11.09,9.86,21.37h1.23C42.74,28,52.6,25.48,52.6,16.85ZM42.33,12.33a4.11,4.11,0,1,0,4.1,4.11A4.11,4.11,0,0,0,42.33,12.33Z"/></svg>