<svg id="Layer_1" data-name="Layer 1" xmlns="http://www.w3.org/2000/svg" viewBox="0 0 60 60"><defs><style>.cls-1{fill:none;}.cls-2{fill:#ffdb6c;}.cls-3{fill:#ffb04c;}.cls-4{fill:#303e48;}.cls-5{fill:#f64938;}.cls-6{opacity:0.2;isolation:isolate;}</style></defs><title>ab-panivalerts</title><rect class="cls-1" width="60" height="60"/><g id="ic_panic-alert" data-name="ic panic-alert"><path id="Path_3195" data-name="Path 3195" class="cls-2" d="M44.67,38.56V30.09a2.83,2.83,0,0,0-2.47-2.83A2.77,2.77,0,0,0,39.73,30V26.55a2.84,2.84,0,0,0-2.47-2.83,2.84,2.84,0,0,0-2.47,2.83V23.72a2.83,2.83,0,0,0-2.48-2.82,2.81,2.81,0,0,0-2.47,2.82V15.26a2.83,2.83,0,0,0-2.42-2.83A2.84,2.84,0,0,0,25,15.26V35a14.37,14.37,0,0,0-3.53-7.78c-1.55-1.55-5.93-.48-3.53,2.83,1.61,2.34,2.74,7.28,2.74,9.9a9.19,9.19,0,0,0,4.94,8.46v5h17v-5h0c2.26-3,2.12-2.88,2.12-9.88"/><path id="Path_3196" data-name="Path 3196" class="cls-3" d="M34.79,47.74H32.66a.72.72,0,0,1,0-1.42h2.13a.72.72,0,0,1,0,1.42Z"/><path id="Path_3197" data-name="Path 3197" class="cls-3" d="M35.49,50.57H32a.72.72,0,0,1,0-1.42h3.52a.72.72,0,0,1,0,1.42Z"/><path id="Path_3198" data-name="Path 3198" class="cls-3" d="M29.84,32.91a.66.66,0,0,1-.71-.62V23a.71.71,0,0,1,1.41,0V32.2a.66.66,0,0,1-.62.71Z"/><path id="Path_3199" data-name="Path 3199" class="cls-3" d="M34.79,33.62a.67.67,0,0,1-.71-.63.09.09,0,0,1,0-.07V25.85a.7.7,0,0,1,.61-.79.71.71,0,0,1,.8.61.54.54,0,0,1,0,.18v7.06a.66.66,0,0,1-.63.7h-.07Z"/><path id="Path_3200" data-name="Path 3200" class="cls-3" d="M39.72,33.62A.68.68,0,0,1,39,33v-3.6a.72.72,0,0,1,1.42-.17.48.48,0,0,1,0,.17v3.53a.66.66,0,0,1-.64.7h-.08Z"/><rect id="Rectangle_289" data-name="Rectangle 289" class="cls-4" x="25.6" y="53.39" width="16.97" height="1.3"/><path id="Path_3201" data-name="Path 3201" class="cls-5" d="M20.38,18.2a7.65,7.65,0,1,1,14.71-3,8.3,8.3,0,0,1-.32,2.27l-2.91-.89a4.8,4.8,0,0,0,.2-1.35,4.62,4.62,0,0,0-9.24,0A4.56,4.56,0,0,0,23.21,17Z"/><path id="Path_3202" data-name="Path 3202" class="cls-5" d="M20.3,25.69A12.71,12.71,0,1,1,40.11,15.15a13,13,0,0,1-.76,4.36l-2.87-1.06a10,10,0,0,0,.57-3.3,9.68,9.68,0,1,0-15.07,8Z"/><ellipse id="Ellipse_19" data-name="Ellipse 19" class="cls-6" cx="30" cy="56.77" rx="23.91" ry="0.79"/></g></svg>