<svg xmlns="http://www.w3.org/2000/svg" xmlns:xlink="http://www.w3.org/1999/xlink" width="760" height="660" viewBox="0 0 760 660">
  <defs>
    <radialGradient id="radial-gradient" cx="0.523" cy="0.586" r="0.373" gradientTransform="matrix(0.97, 0.188, -0.183, 0.97, 0.123, -0.081)" gradientUnits="objectBoundingBox">
      <stop offset="0" stop-color="#18bfff"/>
      <stop offset="0.085" stop-color="#7af2ff"/>
      <stop offset="0.086" stop-color="#82f6ff"/>
      <stop offset="1" stop-color="#18bfff"/>
    </radialGradient>
    <linearGradient id="linear-gradient" x1="0.099" y1="0.158" x2="0.674" y2="0.546" gradientUnits="objectBoundingBox">
      <stop offset="0" stop-color="#fff"/>
      <stop offset="1" stop-color="#fff"/>
    </linearGradient>
    <clipPath id="clip-login-bg">
      <rect width="760" height="660"/>
    </clipPath>
  </defs>
  <g id="login-bg" clip-path="url(#clip-login-bg)">
    <path id="Path_1" data-name="Path 1" d="M184.655,1.673,620.358,0C721.03-.385,802.328,80.309,801.942,180.235L800.271,612.71c-.386,99.927-82.31,181.246-182.983,181.632l-435.7,1.671C80.913,796.4-.385,715.706,0,615.78L1.673,183.305C2.059,83.378,83.983,2.059,184.655,1.673Z" transform="matrix(0.921, 0.391, -0.391, 0.921, 57.474, -349.413)" fill="#f3fcff"/>
    <path id="Path_2" data-name="Path 2" d="M184.43,1.383,580.393,0C681.135-.351,762.517,80.045,762.166,179.568l-1.382,391.175c-.352,99.524-82.3,180.489-183.047,180.841l-395.963,1.382C81.032,753.318-.351,672.923,0,573.4L1.383,182.224C1.735,82.7,83.688,1.735,184.43,1.383Z" transform="matrix(0.966, 0.259, -0.259, 0.966, 1.073, -274.035)" fill="url(#radial-gradient)"/>
    <path id="Path_3" data-name="Path 3" d="M337.341,447.717c-32.128-61.161-40.791-142.195-43.229-206.506A88.533,88.533,0,0,0,343.571,163.6c39.456-19.3,89.483-29.761,143.638-29.761,52.471,0,101.039,9.848,139.9,28.012,0-.11-.015-.217-.017-.324-39.459-19.3-89.485-29.761-143.641-29.761s-104.182,10.462-143.638,29.761a88.539,88.539,0,0,1-49.459,77.615c2.438,64.309,11.1,145.342,43.229,206.5,30.569,58.2,88.9,104.41,140.65,132.527C423.438,549.884,367.171,504.515,337.341,447.717Z" transform="translate(-207.719 -59.984)" opacity="0.26" fill="url(#linear-gradient)"/>
    <path id="Path_4" data-name="Path 4" d="M341.529,475.879C306.537,409.266,297.1,321.01,294.447,250.967a96.424,96.424,0,0,0,53.868-84.531c42.973-21.019,97.459-32.414,156.441-32.414,57.148,0,110.045,10.726,152.368,30.509,0-.119-.016-.236-.019-.353-42.976-21.019-97.461-32.414-156.444-32.414S387.193,143.159,344.22,164.178a96.43,96.43,0,0,1-53.868,84.534c2.656,70.041,12.09,158.3,47.082,224.91,33.294,63.391,96.82,113.716,153.187,144.34C435.3,587.152,374.018,537.74,341.529,475.879Z" transform="translate(-238.189 -79.879)" fill="#fff" opacity="0.1"/>
    <path id="Path_5" data-name="Path 5" d="M341.529,475.879C306.537,409.266,297.1,321.01,294.447,250.967a96.424,96.424,0,0,0,53.868-84.531c42.973-21.019,97.459-32.414,156.441-32.414,57.148,0,110.045,10.726,152.368,30.509,0-.119-.016-.236-.019-.353-42.976-21.019-97.461-32.414-156.444-32.414S387.193,143.159,344.22,164.178a96.43,96.43,0,0,1-53.868,84.534c2.656,70.041,12.09,158.3,47.082,224.91,33.294,63.391,96.82,113.716,153.187,144.34C435.3,587.152,374.018,537.74,341.529,475.879Z" transform="translate(-269.114 -95.342)" fill="#fff" opacity="0.05"/>
    <g id="Group_1" data-name="Group 1" transform="translate(145.071 122.983)">
      <path id="Path_2268" data-name="Path 2268" d="M1763.177,550.35s28.154,4.343,35.847,10.112c6.463,4.849-11.753,6.791-21.156,3.63S1749.662,555.406,1763.177,550.35Z" transform="translate(-1569.288 -156.184)" fill="#f5e0cd"/>
      <path id="Path_2246" data-name="Path 2246" d="M32.683,16.181a16.181,16.181,0,0,0-32.362,0C-2.511,33.067,14.144,72.9,22.153,57.916,28.372,46.278,32.683,24.941,32.683,16.181Z" transform="matrix(1, 0.017, -0.017, 1, 95.388, 219.014)" fill="#f5e0cd"/>
      <path id="Intersection_5" data-name="Intersection 5" d="M48.769,228.584c3.916-26.066,1.885-52.069-5.384-68.23-2.853-6.344-5.77-12.731-8.59-18.909C23.914,117.606,13.635,95.089,7.074,75.632,3.559,65.21,1.408,56.548.5,49.153-.517,40.91.016,34.388,2.128,29.212A38.419,38.419,0,0,1,13.2,14.391a59.728,59.728,0,0,1,14.679-8.9A79.946,79.946,0,0,1,46.184,0C54.8.312,61.448,1.029,65.939,2.128c3.746.917,5.188,1.908,5.738,2.578A1.063,1.063,0,0,1,72,5.447c4.983,7.915,9.119,13.885,12.442,18.681,13.432,19.39,13.432,19.39,1.624,50.1l-.11.284q-.489,1.273-1.005,2.617c-14.8,38.534,13.1,95.117,76.531,155.243a182.86,182.86,0,0,1,27.373,33.748Z" transform="translate(41.659 215.678)" fill="#0a7fac" stroke="rgba(0,0,0,0)" stroke-width="1"/>
      <path id="Path_2248" data-name="Path 2248" d="M35.572,0S29.22,23.54,31.227,37.355A9.67,9.67,0,0,1,25.456,47.6C20.468,49.712,12.365,49.812,0,41.553c0,0,5.889-11.467,5.818-23.72C5.818,17.834,21.931,8.908,35.572,0Z" transform="matrix(1, 0.017, -0.017, 1, 82.603, 182.521)" fill="#ffeee6"/>
      <path id="Path_2249" data-name="Path 2249" d="M1.66,17.834A48.69,48.69,0,0,1,0,30.146a44.609,44.609,0,0,0,10.748-2.8A41.608,41.608,0,0,0,28.565,13.07C29.886,5.669,31.414,0,31.414,0,17.773,8.908,1.66,17.834,1.66,17.834Z" transform="matrix(1, 0.017, -0.017, 1, 86.76, 182.594)" fill="#e5b5aa"/>
      <path id="Path_2250" data-name="Path 2250" d="M9.278,0S14.058,7.494,5.3,14.489-2.213,44.716,15.523,52.96c0,0-12.278-19.911.5-28.216C25.266,18.736,15.773,2,9.278,0Z" transform="matrix(1, 0.017, -0.017, 1, 17.323, 170.178)" fill="#4f271c"/>
      <path id="Path_2251" data-name="Path 2251" d="M13.51,16.058C-1.266,26.716-8.032,68.039,14.94,99.707c23.884,32.928,55.842,26.638,65.519,22.553,36.972-15.605,30.177-72.2,26.98-81.555C98,13.077,64.221-20.522,13.51,16.058Z" transform="matrix(1, 0.017, -0.017, 1, 15.762, 83.929)" fill="#ffeee6"/>
      <path id="Path_2252" data-name="Path 2252" d="M0,8.494S11.991,14.239,19.236,0" transform="matrix(1, 0.017, -0.017, 1, 77.726, 147.039)" fill="none" stroke="#231f20" stroke-miterlimit="10" stroke-width="3"/>
      <path id="Path_2253" data-name="Path 2253" d="M35.757,31.894s-1.547,9.97-7.85,23.473-2.1,21.454-.5,23.751c0,0-20.234-2.127-25.48-25.752S1.71.762,22.428.013,35.757,31.894,35.757,31.894Z" transform="matrix(1, 0.017, -0.017, 1, 1.381, 101.974)" fill="#4f271c"/>
      <path id="Path_2254" data-name="Path 2254" d="M4.49,2.824C-4.91,10.638-1.849,55.856,36.123,61.6c0,0-14.07-12.241-12.78-23.732S20.375-10.382,4.49,2.824Z" transform="matrix(1, 0.017, -0.017, 1, 101.922, 136.527)" fill="#4f271c"/>
      <path id="Path_2255" data-name="Path 2255" d="M0,8.494S11.991,14.239,19.235,0" transform="matrix(1, 0.017, -0.017, 1, 31.898, 157.882)" fill="none" stroke="#231f20" stroke-miterlimit="10" stroke-width="3"/>
      <path id="Path_2256" data-name="Path 2256" d="M1.427,51.656C-1.72,40.469-2.219.162,27.907,0,62.881-.185,79.561,35.357,85.364,62.307c6.995,32.483,52.669,38.511,60.663-.353,0,0,8.784,62.272-42.677,68.857C45.391,138.226,2.7,56.165,1.427,51.656Z" transform="matrix(1, 0.017, -0.017, 1, 91.121, 27.848)" fill="#4f271c"/>
      <path id="Path_2257" data-name="Path 2257" d="M48.368,41.563C20.39.095,0,0,0,0A49.181,49.181,0,0,0,1.4,11.28c1.269,4.51,43.964,86.57,101.923,79.154a48.932,48.932,0,0,0,21.135-7.465C92,91.182,74.564,80.388,48.368,41.563Z" transform="matrix(1, 0.017, -0.017, 1, 90.44, 68.217)" fill="#3d1c14"/>
      <path id="Path_2258" data-name="Path 2258" d="M85.371,4.863C69.542-8.458,51.922,7.74,45.794,27.473a39.88,39.88,0,0,0-1.388,14.475C38.793,25.813,31.371,9.472,23.918,7.752,8.791,4.261-4.126,25.72,1.236,39.233S23.207,70.575,54.047,74.955C55.4,61.874,111.606,26.943,85.371,4.863Z" transform="matrix(1, 0.017, -0.017, 1, 40.478, 0)" fill="#f82b60"/>
      <path id="Path_2259" data-name="Path 2259" d="M1.91,12.248C-1.322,20.584-.244,32.114,3.579,45.818c7.437,22.387,22.907,54.259,54.289,77.845,28.93,21.742,42.92,27.756,56.021,33.345-11.962-16.3-20.985-32.357-26.324-47.619-5.551-2.981-10.627-4.583-14.359-8.185C50.921,79.7,42,55.222,34.5,16.033c-.08-.533-.179-1.058-.3-1.576-.022-.119-.045-.235-.068-.354l-.022,0A18.81,18.81,0,0,0,8.435,1.545,36.433,36.433,0,0,0,1.91,12.248Z" transform="matrix(1, 0.017, -0.017, 1, 42.091, 232.612)" fill="#18bfff"/>
      <path id="Path_2260" data-name="Path 2260" d="M27.625,9.375a12.864,12.864,0,0,1,2.556-5.5C21.768.718,11.766-.771,0,.4A79.7,79.7,0,0,0,27.625,9.375Z" transform="matrix(1, 0.017, -0.017, 1, 65.752, 66.032)" fill="#911f2f"/>
      <path id="Path_2261" data-name="Path 2261" d="M3,.013A20.669,20.669,0,0,0,0,.353c.017,5.94,1.553,12.729,5.228,20.394A37.143,37.143,0,0,0,15.892,34.093c.312-1.419.434-2.2.434-2.2S23.714-.737,3,.013Z" transform="matrix(1, 0.017, -0.017, 1, 20.81, 102.313)" fill="#3d1c14"/>
      <path id="Path_2262" data-name="Path 2262" d="M0,6.995S11.242,12.99,16.488,0" transform="matrix(1, 0.017, -0.017, 1, 66.095, 183.567)" fill="none" stroke="#821e2c" stroke-miterlimit="10" stroke-width="3"/>
      <path id="Path_2263" data-name="Path 2263" d="M24.215,3.854C10.147,7.89-9.509,24.588,5.23,55.315S63.685,78.8,70.68,75.3s27.365-1.691,31.045,3.776A40.819,40.819,0,0,0,109.4,49.819C106.867,30.386,83.421-13.133,24.215,3.854Z" transform="matrix(1, 0.017, -0.017, 1, 24.408, 67.802)" fill="#4f271c"/>
      <path id="Path_2264" data-name="Path 2264" d="M5.07,37.614c2.124-1.633,5.048-4.553,8.955-9.74,10.242-13.6,1.5-30.12-6-27.622C3.22,1.855.985,8.8,0,13.579,3.222,19.953,4.751,29.948,5.07,37.614Z" transform="matrix(1, 0.017, -0.017, 1, 120.469, 129.547)" fill="#f5e0cd"/>
      <path id="Path_2266" data-name="Path 2266" d="M171.386,163.3c-17.653-7.327-48.644-31.857-76.189-51.052-7.34-5.114-14.291-6.445-19.057-11.043-22.284-21.5-31.2-45.982-38.7-85.172-.08-.533-.179-1.058-.3-1.576-.022-.119-.045-.235-.068-.354l-.022,0A18.823,18.823,0,1,0,.954,24.729C4.158,41.546,16.945,90.7,60.8,123.663c49.632,37.3,55.292,28.312,87.934,50.295,0,0,7.328,15.988,37.971,19.318S185.175,169.023,171.386,163.3Z" transform="matrix(1, 0.017, -0.017, 1, 41.172, 231.596)" fill="#ffeee6"/>
    </g>
  </g>
</svg>
