<svg id="Layer_1" data-name="Layer 1" xmlns="http://www.w3.org/2000/svg" viewBox="0 0 54 54"><defs><style>.cls-1{fill:#fff1e0;stroke:#ffe9d2;stroke-miterlimit:10;}.cls-2{fill:#303e48;}.cls-3{fill:#e6e6e6;}.cls-4{fill:#d1d1d1;}.cls-5{fill:#ffb04c;}.cls-6{fill:#fa6657;}.cls-7{fill:#f44a46;}.cls-8{fill:#162630;}.cls-9{fill:#ffdb6c;}.cls-10{fill:#e89b46;}.cls-11{opacity:0.2;}</style></defs><title>ic_VehDevicemap</title><circle class="cls-1" cx="27" cy="27" r="25"/><circle class="cls-2" cx="38.09" cy="35.64" r="2.58"/><circle class="cls-3" cx="38.09" cy="35.64" r="1.57"/><circle class="cls-4" cx="38.09" cy="35.64" r="0.54"/><path class="cls-5" d="M37.49,30.4a5.12,5.12,0,0,1,.56,0,4.42,4.42,0,0,1,4.34,3.57.73.73,0,0,1-.7.85h-6"/><circle class="cls-2" cx="14.39" cy="35.64" r="2.58"/><circle class="cls-3" cx="14.39" cy="35.64" r="1.57"/><circle class="cls-4" cx="14.39" cy="35.64" r="0.54"/><rect class="cls-6" x="25.94" y="27.73" width="4.05" height="5.74"/><rect class="cls-7" x="25.94" y="27.73" width="4.05" height="1.38"/><path class="cls-2" d="M29.43,28h-4V25.8h4a1.11,1.11,0,0,1,1.11,1.11h0A1.11,1.11,0,0,1,29.43,28Z"/><rect class="cls-3" x="24.83" y="16.54" width="1.1" height="16.26"/><path class="cls-5" d="M39.19,30.48h.9a.71.71,0,0,0,.72-.71V28.39a.72.72,0,0,0-.72-.72h-.9a1.41,1.41,0,0,0-1.4,1.41h0A1.4,1.4,0,0,0,39.19,30.48Z"/><path class="cls-6" d="M43.45,29.54h-.87a.56.56,0,0,1,0-1.11h.87a.56.56,0,0,1,0,1.11Z"/><path class="cls-6" d="M42.51,27.83a.55.55,0,0,1-.21-1.07l.81-.32a.55.55,0,0,1,.41,1l-.81.33A.79.79,0,0,1,42.51,27.83Z"/><path class="cls-6" d="M43.31,31.5a.57.57,0,0,1-.22,0l-.8-.34a.56.56,0,1,1,.44-1l.8.34a.55.55,0,0,1-.22,1.06Z"/><path class="cls-2" d="M36.2,16.54a2.2,2.2,0,0,0,2.15-1.71.4.4,0,0,0-.4-.49H15.85a5,5,0,0,0-5,5v6.21a2.6,2.6,0,0,0,4.48,1.79l1.85-1.95V18.77a2.22,2.22,0,0,1,2.22-2.23H32.52v7.14l2.76.59,2.65-.59a18.37,18.37,0,0,0-2.36-7.14Z"/><path class="cls-8" d="M35.57,16.54h-3v2h4A15.35,15.35,0,0,0,35.57,16.54Z"/><path class="cls-3" d="M36.69,22a13.23,13.23,0,0,0-1.4-4,.4.4,0,0,0-.36-.22h-1a.4.4,0,0,0-.4.4v3.84a.42.42,0,0,0,.4.41h2.39A.41.41,0,0,0,36.69,22Z"/><path class="cls-9" d="M32.52,23.68v9.13H21V28.3a3,3,0,0,0-3-2.93H10.89v9.42H35.73a18.06,18.06,0,0,0,2.32-9,19.1,19.1,0,0,0-.12-2.15Z"/><path class="cls-10" d="M38.21,30.37h-.16a5.12,5.12,0,0,0-.56,0l-1.76,4.39h.87A17.88,17.88,0,0,0,38.21,30.37Z"/><path class="cls-5" d="M38.05,25.37c0-.58,0-1.14-.12-1.69H32.52v1.69Z"/><path class="cls-5" d="M20.77,27.07a3,3,0,0,0-2.7-1.7H10.89v1.7Z"/><path class="cls-6" d="M35,26.11h-.65a.54.54,0,0,1-.55-.55.55.55,0,0,1,.55-.55H35a.56.56,0,0,1,.56.55A.55.55,0,0,1,35,26.11Z"/><path class="cls-5" d="M10.48,34.79a.49.49,0,0,1-.48-.55,4.42,4.42,0,0,1,8.8.55Z"/><ellipse class="cls-11" cx="26.39" cy="39.2" rx="13.93" ry="0.46"/></svg>